<svg width="356" height="341" viewBox="0 0 356 341" fill="none" xmlns="http://www.w3.org/2000/svg">
<g clip-path="url(#clip0)">
<path d="M166.985 0H171.873C171.91 9.91587 171.948 19.8317 171.873 29.7098C172.694 29.7476 173.552 29.7855 174.41 29.7855C174.448 33.0403 174.559 36.2573 174.336 39.4743C173.44 39.3607 172.545 39.3607 171.649 39.3607C173.067 40.3447 174.597 41.1395 175.641 42.5398C178.701 46.211 180.156 50.904 181.089 55.5592C182.133 60.8199 181.76 66.1941 181.835 71.5305C181.872 73.9149 181.76 76.3371 181.798 78.7214C181.723 80.1596 183.29 80.803 183.775 82.0141C184.857 84.6255 184.521 87.9939 182.544 90.1133C173.701 90.0376 164.859 90.1133 156.016 90.0755C154.561 87.6911 154.001 84.6255 155.158 82.0141C155.68 80.8408 157.135 80.1596 157.061 78.7214C157.098 74.1798 157.024 69.6382 157.061 65.0966C156.986 58.6247 157.994 52.0016 160.867 46.1731C162.172 43.5996 164.113 41.3666 166.426 39.7013C165.306 39.8906 164.187 40.0041 163.031 40.1555C163.516 39.9663 164.001 39.8149 164.486 39.6635C164.598 36.333 164.336 33.0024 164.598 29.7098C165.381 29.7098 166.165 29.6719 166.948 29.6719C167.023 19.7939 167.023 9.87802 166.985 0Z" fill="#474E5E" stroke="#474E5E" stroke-width="0.09375"/>
<path d="M171.649 39.3607C172.545 39.3607 173.44 39.3607 174.336 39.4743C176.5 40.1933 178.738 40.761 180.753 41.8965C185.566 44.3565 189.484 48.444 191.872 53.3262C191.946 53.5154 192.133 53.9317 192.245 54.121C192.879 55.7105 193.401 57.3001 193.774 58.9654C193.513 59.4574 193.625 59.8737 194.036 60.2143C194.073 60.4414 194.147 60.9334 194.185 61.1983C194.222 67.4809 194.11 73.7635 194.222 80.0461L194.521 80.1218C196.498 80.3488 198.401 81.5599 199.072 83.528C199.072 84.7391 199.072 85.9123 198.998 87.0856C198.289 88.6373 196.908 89.8484 195.229 90.1512C194.782 90.189 194.334 90.2647 193.886 90.3404C190.118 89.8862 186.312 90.2269 182.544 90.1133C184.521 87.9939 184.857 84.6255 183.775 82.0141C183.29 80.803 181.723 80.1596 181.798 78.7214C181.76 76.3371 181.872 73.9149 181.835 71.5305C181.76 66.1941 182.134 60.8199 181.089 55.5592C180.156 50.904 178.701 46.211 175.642 42.5399C174.597 41.1395 173.067 40.3447 171.649 39.3607Z" fill="#2E3545" stroke="#2E3545" stroke-width="0.09375"/>
<path d="M163.031 40.1555C164.187 40.0041 165.306 39.8905 166.426 39.7013C164.113 41.3666 162.172 43.5995 160.867 46.1731C157.994 52.0015 156.986 58.6247 157.061 65.0965C157.024 69.6381 157.098 74.1798 157.061 78.7214C157.136 80.1596 155.68 80.8408 155.158 82.0141C154.001 84.6255 154.561 87.6911 156.016 90.0754C153.778 90.0754 151.539 90.0754 149.3 90.0754C147.248 88.2588 146.465 85.1932 147.584 82.6575C148.069 81.1814 149.524 80.5002 150.718 79.7811C150.905 74.1041 150.681 68.4649 150.83 62.8257C151.091 56.1268 153.404 49.3144 157.994 44.4321C159.449 42.8047 161.352 41.7072 163.142 40.4961C162.62 40.4961 162.098 40.4961 161.575 40.4961C162.06 40.3447 162.546 40.269 163.031 40.1555Z" fill="#606777" stroke="#606777" stroke-width="0.09375"/>
<path d="M147.099 53.4019C149.972 47.3464 155.307 42.5398 161.575 40.4961C162.098 40.4961 162.62 40.4961 163.142 40.4961C161.352 41.7072 159.449 42.8048 157.994 44.4322C153.404 49.3144 151.091 56.1268 150.83 62.8257C150.681 68.4649 150.905 74.1041 150.718 79.7811C149.524 80.5002 148.069 81.1814 147.584 82.6575C146.465 85.1932 147.248 88.2588 149.3 90.0755C147.771 90.0376 146.278 90.1133 144.786 90.189C142.622 90.2647 140.42 88.8265 139.861 86.6692C139.488 84.9661 139.712 82.9602 141.055 81.7113C141.95 80.6516 143.368 80.3488 144.636 80.0839C144.599 74.9367 144.636 69.8274 144.636 64.7181C144.599 60.8198 145.383 56.8838 147.099 53.4019Z" fill="#474E5E" stroke="#474E5E" stroke-width="0.09375"/>
<path d="M55.2781 48.4439C56.3601 47.2707 57.4794 46.1353 58.636 45.0377C64.5311 50.9418 70.3515 56.8459 76.1719 62.8257C75.0899 63.999 73.9706 65.1344 72.814 66.232C66.9189 60.3657 61.0612 54.4237 55.2781 48.4439Z" fill="#474E5E" stroke="#474E5E" stroke-width="0.09375"/>
<path d="M262.724 62.8257C268.544 56.8459 274.402 50.904 280.26 45.0377C281.379 46.1353 282.61 47.195 283.58 48.4439C283.17 49.2387 282.424 49.7686 281.827 50.412C276.865 55.4834 271.865 60.4792 266.903 65.5507C266.642 65.7399 266.231 66.4212 265.895 66.0049C264.776 65.0209 263.769 63.8855 262.724 62.8257Z" fill="#474E5E" stroke="#474E5E" stroke-width="0.09375"/>
<path opacity="0.48" d="M191.871 53.3262C191.946 53.5154 192.133 53.9317 192.245 54.121C192.133 53.9317 191.946 53.5154 191.871 53.3262Z" fill="#35373A" stroke="#35373A" stroke-width="0.09375"/>
<path opacity="0.49" d="M193.774 58.9654C194.185 59.306 194.259 59.7223 194.036 60.2143C193.625 59.8737 193.513 59.4574 193.774 58.9654Z" fill="#3A3D40" stroke="#3A3D40" stroke-width="0.09375"/>
<path opacity="0.65" d="M194.185 61.1984C194.297 61.9931 194.409 62.7501 194.446 63.5449C194.521 69.0705 194.334 74.5961 194.521 80.1218L194.222 80.0461C194.11 73.7635 194.222 67.4809 194.185 61.1984Z" fill="#3A3B42" stroke="#3A3B42" stroke-width="0.09375"/>
<path opacity="0.67" d="M199.072 83.528C199.408 84.7012 199.408 85.9502 198.998 87.0856C199.072 85.9123 199.072 84.7391 199.072 83.528Z" fill="#33373C" stroke="#33373C" stroke-width="0.09375"/>
<path d="M144.786 90.189C146.278 90.1133 147.771 90.0376 149.3 90.0755C151.539 90.0755 153.778 90.0755 156.016 90.0755C164.859 90.1133 173.701 90.0377 182.544 90.1133C186.312 90.2269 190.118 89.8863 193.886 90.3404C192.954 90.4918 192.021 90.6054 191.088 90.6054C175.641 90.5297 160.195 90.6432 144.786 90.5297V90.189Z" fill="#AC6F02" stroke="#AC6F02" stroke-width="0.09375"/>
<path d="M193.886 90.3404C194.334 90.2647 194.782 90.189 195.229 90.1512C194.856 90.2269 194.483 90.3026 194.11 90.4161C194.185 91.0595 194.259 91.7407 194.334 92.3841C194.147 91.8543 193.924 91.3623 193.588 90.8703C192.282 90.5675 190.939 90.7189 189.596 90.7189C176.164 90.7189 162.732 90.7189 149.3 90.681C147.957 90.7189 146.614 90.5675 145.308 90.8703C144.972 91.3623 144.748 91.8921 144.562 92.3841C144.637 91.7786 144.711 91.1352 144.786 90.5297C160.195 90.6432 175.641 90.5296 191.088 90.6053C192.021 90.6053 192.953 90.4918 193.886 90.3404Z" fill="#FDE79A" stroke="#FDE79A" stroke-width="0.09375"/>
<path d="M145.308 90.8703C146.614 90.5675 147.957 90.7189 149.3 90.6811C162.732 90.7189 176.164 90.7189 189.596 90.7189C190.939 90.7189 192.282 90.5675 193.588 90.8703C193.924 91.3623 194.147 91.8543 194.334 92.3842C194.819 94.9956 195.528 97.5692 196.647 99.9914C197.953 103.246 200.117 106.047 202.057 108.885C201.311 108.393 200.602 107.788 200.042 107.107C198.737 105.555 197.17 104.192 195.714 102.792C193.513 100.635 191.424 98.3261 189.297 96.0931C188.663 95.2605 187.543 95.3362 186.611 95.3362C184.036 95.3362 181.425 95.3741 178.813 95.3362C177.544 95.2984 176.276 95.2984 175.007 95.3362C171.313 95.3741 167.582 95.3362 163.889 95.3362C162.62 95.2984 161.352 95.2984 160.12 95.3362C159.15 95.3362 158.18 95.3362 157.21 95.2984C155.307 95.2984 153.404 95.2984 151.502 95.3362C148.965 95.3741 146.465 95.4119 143.928 95.2227C144.151 94.2765 144.413 93.3682 144.562 92.3842C144.748 91.8922 144.972 91.3623 145.308 90.8703Z" fill="#FDA102" stroke="#FDA102" stroke-width="0.09375"/>
<path d="M133.406 112.557C138.033 107.636 142.323 101.959 143.928 95.2227C146.465 95.4119 148.965 95.374 151.502 95.3362C150.569 100.938 147.883 106.123 144.674 110.74C143.778 112.178 142.659 113.465 141.465 114.714C136.466 120.694 130.347 125.689 125.646 131.972C122.138 136.627 119.75 142.077 118.557 147.754C117.101 153.62 117.176 159.676 117.4 165.656C118.258 175.874 122.325 185.714 128.444 193.852C128.742 193.814 129.377 193.814 129.675 193.814C129.041 191.467 127.474 189.537 126.653 187.266C122.922 178.637 121.429 169.024 122.474 159.676C123.071 153.582 124.526 147.527 127.511 142.153C130.123 137.119 133.928 132.842 137.921 128.868C143.741 123.002 149.897 117.098 153.516 109.491C155.568 105.063 157.247 100.256 157.21 95.2983C158.18 95.3362 159.15 95.3362 160.12 95.3362C160.12 112.254 160.083 129.171 160.12 146.127C160.12 146.732 160.083 147.413 159.598 147.83C158.18 149.306 156.725 150.744 155.27 152.182C153.293 152.031 151.017 151.577 149.375 152.977C146.539 154.907 146.315 159.752 149.039 161.871C149.524 162.287 150.084 162.628 150.643 162.931C151.875 163.612 153.666 163.915 154.673 162.817C155.979 162.628 157.024 163.498 158.068 164.066C160.158 165.353 162.508 166.034 164.859 166.64C167.06 167.51 169.448 167.283 171.724 167.245C172.545 167.245 173.328 166.942 174.074 166.64C177.134 166.223 179.932 164.747 182.544 163.158C183.924 162.212 185.491 163.574 186.947 163.271C188.439 162.931 189.931 162.212 190.789 160.925C191.834 159.524 191.909 157.594 191.573 155.929C191.237 154.226 189.857 152.939 188.327 152.296C186.797 151.766 185.193 152.069 183.626 152.182C182.096 150.593 180.417 149.079 178.999 147.413C178.738 146.467 178.813 145.521 178.813 144.575C178.813 128.149 178.776 111.762 178.813 95.3362C181.425 95.374 184.036 95.3362 186.611 95.3362C187.543 95.3362 188.663 95.2605 189.297 96.0931C191.424 98.3261 193.513 100.635 195.714 102.792C197.17 104.192 198.737 105.555 200.042 107.107C200.602 107.788 201.311 108.393 202.057 108.885C202.803 109.529 203.438 110.248 203.997 111.043C204.259 112.67 205.415 113.881 206.236 115.206C209.706 120.277 211.758 126.219 212.989 132.237C215.899 147.149 213.773 163.233 205.975 176.328C204.184 179.697 201.833 182.687 199.445 185.601C196.237 189.537 192.282 192.754 188.178 195.744C176.052 204.259 160.717 207.817 146.129 205.66C138.555 204.562 131.13 202.026 124.564 198.053C123.295 197.333 122.176 196.425 120.795 195.971C114.564 187.19 110.759 176.669 109.938 165.883C109.49 163.347 109.677 160.773 109.677 158.2C110.05 152.182 110.796 146.127 112.811 140.412C114.303 135.794 116.728 131.556 119.527 127.62C123.593 122.094 128.705 117.514 133.406 112.557Z" fill="#FFCA10" stroke="#FFCA10" stroke-width="0.09375"/>
<path d="M151.502 95.3362C153.405 95.2983 155.307 95.2983 157.21 95.2983C157.247 100.256 155.569 105.063 153.516 109.491C149.897 117.098 143.741 123.002 137.921 128.868C133.928 132.842 130.123 137.119 127.511 142.153C124.526 147.527 123.071 153.582 122.474 159.676C121.429 169.024 122.922 178.637 126.653 187.266C127.474 189.537 129.041 191.467 129.675 193.814C129.377 193.814 128.742 193.814 128.444 193.852C122.325 185.714 118.258 175.874 117.4 165.656C117.176 159.676 117.101 153.62 118.557 147.754C119.75 142.077 122.138 136.627 125.646 131.972C130.347 125.689 136.466 120.694 141.465 114.714C142.659 113.465 143.778 112.178 144.674 110.74C147.883 106.123 150.569 100.938 151.502 95.3362Z" fill="#FDE79A" stroke="#FDE79A" stroke-width="0.09375"/>
<path d="M160.12 95.3362C161.352 95.2983 162.62 95.2983 163.889 95.3362C163.851 112.632 163.851 129.928 163.889 147.224C163.851 147.981 163.926 148.814 163.329 149.381C161.65 151.312 159.747 153.015 157.994 154.907C158.18 156.459 158.217 158.048 158.031 159.6C160.232 161.341 162.844 162.439 165.568 162.893C167.993 163.839 170.903 163.839 173.328 162.893C175.977 162.401 178.664 161.455 180.753 159.714C180.716 158.086 180.828 156.497 180.902 154.907C179.223 153.09 177.395 151.387 175.716 149.571C175.082 148.965 175.007 148.057 175.007 147.262C175.044 129.928 175.007 112.632 175.007 95.3362C176.276 95.2983 177.544 95.2983 178.813 95.3362C178.775 111.762 178.813 128.149 178.813 144.575C178.813 145.521 178.738 146.467 178.999 147.413C180.417 149.079 182.096 150.593 183.626 152.182C185.193 152.069 186.797 151.766 188.327 152.296C189.857 152.939 191.237 154.226 191.573 155.929C191.909 157.594 191.834 159.524 190.789 160.925C189.931 162.212 188.439 162.931 186.946 163.271C185.491 163.574 183.924 162.212 182.544 163.158C179.932 164.747 177.134 166.223 174.074 166.64C170.978 166.64 167.918 166.677 164.859 166.64C162.508 166.034 160.158 165.353 158.068 164.066C157.024 163.498 155.979 162.628 154.673 162.817C153.33 162.817 151.987 162.893 150.643 162.931C150.084 162.628 149.524 162.287 149.039 161.871C146.315 159.752 146.539 154.907 149.375 152.977C151.017 151.577 153.292 152.031 155.27 152.182C156.725 150.744 158.18 149.306 159.598 147.83C160.083 147.413 160.12 146.732 160.12 146.127C160.083 129.171 160.12 112.254 160.12 95.3362ZM151.278 156.043C151.017 156.951 150.643 157.973 151.315 158.805C151.949 159.297 152.807 159.789 153.554 159.146C154.785 158.616 154.486 157.027 154.039 156.005C153.143 155.778 152.173 155.778 151.278 156.043ZM184.82 156.005C184.559 156.913 184.26 157.973 184.857 158.843C185.491 159.335 186.387 159.789 187.133 159.184C188.364 158.654 188.028 157.027 187.618 156.043C186.723 155.815 185.753 155.778 184.82 156.005Z" fill="#FDFEFC" stroke="#FDFEFC" stroke-width="0.09375"/>
<path d="M163.889 95.3362C167.582 95.3362 171.313 95.374 175.007 95.3362C175.007 112.632 175.045 129.928 175.007 147.262C175.007 148.057 175.082 148.965 175.716 149.571C177.395 151.387 179.223 153.09 180.902 154.907C180.828 156.497 180.716 158.086 180.753 159.714C178.664 161.455 175.977 162.401 173.328 162.893C173.03 162.893 172.47 162.893 172.209 162.893C170.381 162.779 168.515 162.779 166.687 162.893C166.426 162.893 165.866 162.893 165.568 162.893C162.844 162.439 160.232 161.341 158.031 159.6C158.218 158.048 158.18 156.459 157.994 154.907C159.747 153.015 161.65 151.312 163.329 149.381C163.926 148.814 163.851 147.981 163.889 147.224C163.851 129.928 163.851 112.632 163.889 95.3362Z" fill="#FFCA10" stroke="#FFCA10" stroke-width="0.09375"/>
<path d="M23.303 96.8879C23.8627 97.0393 24.385 97.2286 24.9074 97.4178C31.5859 100.294 38.3018 103.057 44.9804 105.858C45.3908 106.047 45.8012 106.236 46.2116 106.463C45.8385 107.977 45.0177 109.34 44.6073 110.816C42.891 110.664 41.3986 109.68 39.7942 109.112C33.7126 106.539 27.5937 104.041 21.5494 101.43C22.0718 99.8778 22.6688 98.4018 23.303 96.8879Z" fill="#474E5E" stroke="#474E5E" stroke-width="0.09375"/>
<path d="M308.69 99.6886C311.004 98.8181 313.205 97.607 315.593 96.8879C316.302 98.364 316.861 99.8778 317.458 101.392C310.556 104.344 303.616 107.22 296.676 110.134C295.968 110.437 295.221 110.702 294.512 110.891C293.878 109.415 293.132 108.015 292.722 106.463C297.982 104.079 303.392 101.959 308.69 99.6886Z" fill="#474E5E" stroke="#474E5E" stroke-width="0.09375"/>
<path d="M203.997 111.043C210.191 117.552 217.131 123.456 221.794 131.215C225.339 136.854 227.391 143.326 228.51 149.911C229.145 155.664 229.742 161.492 228.846 167.245C227.801 178.448 223.399 189.234 216.646 198.09C210.042 206.682 201.162 213.456 191.163 217.354C190.64 217.127 190.267 217.279 190.043 217.809C186.909 218.982 183.626 219.966 180.305 220.42C179.559 220.117 178.664 220.155 178.141 220.874C177.283 220.988 176.425 221.026 175.567 221.177C173.403 221.026 171.239 221.215 169.075 221.215C167.023 221.215 164.971 221.025 162.956 221.139C146.204 219.474 130.421 209.936 120.795 195.971C122.176 196.425 123.295 197.333 124.564 198.052C131.13 202.026 138.555 204.562 146.129 205.66C160.717 207.817 176.052 204.259 188.178 195.744C192.282 192.754 196.237 189.537 199.446 185.601C201.833 182.687 204.184 179.697 205.975 176.328C213.773 163.233 215.899 147.148 212.989 132.237C211.758 126.219 209.706 120.277 206.236 115.206C205.415 113.881 204.259 112.67 203.997 111.043Z" fill="#FFA200" stroke="#FFA200" stroke-width="0.09375"/>
<path d="M151.278 156.043C152.173 155.778 153.143 155.778 154.039 156.005C154.486 157.027 154.785 158.616 153.554 159.146C152.807 159.789 151.949 159.297 151.315 158.805C150.643 157.973 151.017 156.951 151.278 156.043Z" fill="#FBC910" stroke="#FBC910" stroke-width="0.09375"/>
<path d="M184.82 156.005C185.753 155.778 186.723 155.815 187.618 156.043C188.029 157.027 188.364 158.654 187.133 159.184C186.387 159.789 185.491 159.335 184.857 158.843C184.26 157.973 184.559 156.913 184.82 156.005Z" fill="#FCCA11" stroke="#FCCA11" stroke-width="0.09375"/>
<path d="M10.2817 158.351C18.5273 158.351 26.7729 158.389 35.0185 158.313C35.0185 160.016 35.0185 161.682 35.0185 163.385C26.7729 163.309 18.5273 163.385 10.2817 163.385C10.319 161.682 10.319 160.016 10.2817 158.351Z" fill="#464E5E" stroke="#464E5E" stroke-width="0.09375"/>
<path d="M303.84 158.313C312.123 158.389 320.369 158.351 328.614 158.351C328.614 160.016 328.614 161.682 328.651 163.385C320.369 163.347 312.086 163.347 303.803 163.385C303.877 161.72 303.728 160.016 303.84 158.313Z" fill="#464E5D" stroke="#464E5D" stroke-width="0.09375"/>
<path d="M150.643 162.931C151.987 162.893 153.33 162.817 154.673 162.817C153.666 163.915 151.875 163.612 150.643 162.931Z" fill="#F4EA9A" stroke="#F4EA9A" stroke-width="0.09375"/>
<path d="M165.568 162.893C165.866 162.893 166.426 162.893 166.687 162.893C168.515 163.347 170.381 163.309 172.209 162.893C172.47 162.893 173.03 162.893 173.328 162.893C170.903 163.839 167.993 163.839 165.568 162.893Z" fill="#FBF29A" stroke="#FBF29A" stroke-width="0.09375"/>
<path d="M166.687 162.893C168.515 162.779 170.381 162.779 172.209 162.893C170.381 163.309 168.515 163.347 166.687 162.893Z" fill="#E5C95D" stroke="#E5C95D" stroke-width="0.09375"/>
<path d="M164.859 166.64C167.918 166.677 170.978 166.64 174.074 166.64C173.328 166.942 172.545 167.245 171.724 167.245C169.448 167.283 167.06 167.51 164.859 166.64Z" fill="#F5E794" stroke="#F5E794" stroke-width="0.09375"/>
<path d="M21.4375 220.382C29.1234 217.241 36.6975 213.872 44.3834 210.845C45.1296 212.283 45.7266 213.797 46.2116 215.349C38.6003 218.641 30.9517 221.745 23.3403 225.037C22.7807 223.448 22.0718 221.896 21.4375 220.382Z" fill="#474E5E" stroke="#474E5E" stroke-width="0.09375"/>
<path d="M294.55 210.807C301.937 213.683 309.138 217.014 316.488 219.928C316.749 220.117 317.458 220.155 317.384 220.647C316.861 222.047 316.19 223.41 315.63 224.772C314.063 224.545 312.72 223.75 311.265 223.183C305.071 220.571 298.84 217.998 292.647 215.348C293.244 213.835 293.804 212.283 294.55 210.807Z" fill="#474E5E" stroke="#474E5E" stroke-width="0.09375"/>
<path d="M190.043 217.809C190.267 217.279 190.64 217.127 191.163 217.354C190.901 217.771 190.528 217.922 190.043 217.809Z" fill="#DBB364" stroke="#DBB364" stroke-width="0.09375"/>
<path d="M178.141 220.874C178.664 220.155 179.559 220.117 180.305 220.42C179.671 220.874 178.887 220.912 178.141 220.874Z" fill="#FDE79A" stroke="#FDE79A" stroke-width="0.09375"/>
<path d="M162.956 221.139C164.971 221.026 167.023 221.215 169.075 221.215C171.239 221.215 173.403 221.026 175.567 221.177C173.477 221.745 171.239 221.48 169.075 221.555C167.023 221.48 164.933 221.745 162.956 221.139Z" fill="#FDE79A" stroke="#FDE79A" stroke-width="0.09375"/>
<path d="M55.2407 273.254C61.0611 267.312 66.8816 261.37 72.7766 255.504C73.8586 256.677 75.0153 257.813 76.1719 258.91C73.0005 262.354 69.6052 265.609 66.3592 268.977C63.7848 271.551 61.3223 274.238 58.636 276.698C57.4794 275.601 56.3227 274.465 55.2407 273.254Z" fill="#474E5E" stroke="#474E5E" stroke-width="0.09375"/>
<path d="M266.156 255.542C270.485 259.819 274.701 264.171 278.991 268.485C280.484 270.113 282.2 271.551 283.543 273.292C282.685 274.617 281.379 275.601 280.26 276.736C274.402 270.832 268.582 264.928 262.799 258.986C263.918 257.851 265.074 256.715 266.156 255.542Z" fill="#474F5E" stroke="#474F5E" stroke-width="0.09375"/>
<path d="M115.796 285.857C117.251 286.463 118.743 287.03 120.198 287.712C119.713 289.718 118.743 291.534 118.034 293.427C115.609 299.255 113.296 305.121 110.871 310.95C109.341 310.42 107.848 309.814 106.393 309.133C107.736 305.008 109.639 301.072 111.206 297.06C112.699 293.313 114.229 289.566 115.796 285.857Z" fill="#474E5E" stroke="#474E5E" stroke-width="0.09375"/>
<path d="M218.698 287.75C220.153 287.03 221.682 286.463 223.138 285.857C225.787 292.215 228.361 298.612 231.01 305.008C231.532 306.37 232.204 307.695 232.503 309.133C231.047 309.814 229.592 310.458 228.063 310.95C225.6 304.894 223.138 298.877 220.675 292.821C220.003 291.118 219.183 289.49 218.698 287.75Z" fill="#474E5E" stroke="#474E5E" stroke-width="0.09375"/>
<path d="M166.985 297.211C168.627 297.211 170.306 297.211 171.948 297.211C171.91 305.575 171.91 313.977 171.948 322.342C170.269 322.342 168.627 322.342 166.948 322.342C167.023 313.977 167.023 305.575 166.985 297.211Z" fill="#474E5E" stroke="#474E5E" stroke-width="0.09375"/>
</g>
<defs>
<clipPath id="clip0">
<rect x="-13" width="369" height="341" fill="white"/>
</clipPath>
</defs>
</svg>
