<svg width="277" height="278" viewBox="0 0 277 278" fill="none" xmlns="http://www.w3.org/2000/svg">
<rect width="277" height="278" fill="#F15A29"/>
<path d="M79.3689 39.4H116.809V209.32H222.217V241H79.3689V39.4Z" fill="white"/>
<path d="M162.072 98.33H149.822L147.407 104H142.717L153.742 79.5H158.222L169.282 104H164.522L162.072 98.33ZM160.567 94.76L155.947 84.05L151.362 94.76H160.567ZM165.081 147L165.046 130.76L156.996 144.2H154.966L146.916 130.97V147H142.576V122.5H146.321L156.051 138.74L165.606 122.5H169.351L169.386 147H165.081ZM163.337 177.26C164.69 177.703 165.764 178.45 166.557 179.5C167.35 180.527 167.747 181.81 167.747 183.35C167.747 185.473 166.93 187.118 165.297 188.285C163.664 189.428 161.284 190 158.157 190H145.977V165.5H157.457C160.35 165.5 162.579 166.072 164.142 167.215C165.705 168.335 166.487 169.887 166.487 171.87C166.487 173.083 166.207 174.157 165.647 175.09C165.087 176.023 164.317 176.747 163.337 177.26ZM150.527 169.07V175.825H156.967C158.554 175.825 159.767 175.545 160.607 174.985C161.47 174.402 161.902 173.562 161.902 172.465C161.902 171.345 161.47 170.505 160.607 169.945C159.767 169.362 158.554 169.07 156.967 169.07H150.527ZM157.877 186.43C161.4 186.43 163.162 185.252 163.162 182.895C163.162 180.538 161.4 179.36 157.877 179.36H150.527V186.43H157.877Z" fill="white"/>
</svg>
