<svg width="376" height="304" viewBox="0 0 376 304" fill="none" xmlns="http://www.w3.org/2000/svg">
<path d="M84.9315 109.728L-1.86304 194.722V299.053H273.425L84.9315 109.728Z" fill="#F15A29"/>
<path d="M271.37 299L320 277H229L271.37 299Z" fill="#F15A29"/>
<path d="M264.219 169.538L307.616 126.367L205.479 53.5148L110.795 142.106L199.343 232.047L264.219 169.538Z" fill="#F15A29"/>
<path d="M219.945 234.296L252.384 190.675L219.945 201.018L186.192 234.296H219.945Z" fill="#F15A29"/>
<g clip-path="url(#clip0)">
<path opacity="0.53" d="M245.108 28.4514C247.961 26.9522 251.316 26.5433 254.554 26.3729C255.904 26.2707 257.253 26.6455 258.525 27.0203C256.019 26.7477 253.475 26.6114 251.007 27.1225C248.925 27.4633 247.036 28.3151 245.186 29.201C242.911 30.2914 241.214 32.0632 239.441 33.6646C237.86 35.1298 237.32 37.1742 235.971 38.7757C235.2 39.7297 233.774 39.8319 232.578 39.7638C230.496 39.6616 228.492 38.7075 226.41 39.0823C221.282 39.8319 215.846 41.1949 212.26 44.7385C210.602 46.2378 208.752 47.6348 207.557 49.4407C204.742 53.8702 203.393 59.1516 204.704 64.1264C205.475 65.9663 206.014 67.8745 206.4 69.7826L206.13 69.8848C205.899 69.987 205.436 70.1915 205.205 70.2937C205.899 67.6359 203.778 65.319 203.894 62.6953C203.894 60.0035 203.624 57.2776 204.472 54.6539C205.128 52.5754 205.937 50.5651 207.094 48.6911C208.289 46.7489 210.178 45.2837 211.913 43.7504C213.725 42.1149 216.116 41.1949 218.429 40.3431C222.053 39.1505 225.908 38.1964 229.802 38.6734C231.422 38.8097 233.118 39.6275 234.737 39.1164C236.549 37.4468 236.935 34.9935 238.593 33.2217C240.443 31.3136 242.487 29.5077 245.108 28.4514Z" fill="#7E7E7E" stroke="#7E7E7E" stroke-width="0.09375"/>
<path d="M251.007 27.1225C253.475 26.6114 256.019 26.7477 258.525 27.0203C258.679 27.0544 258.988 27.1225 259.104 27.1907C261.07 28.5196 263.614 29.0647 265.349 30.6662C267.547 32.7106 270.246 34.5165 271.441 37.2083C274.487 37.6853 277.533 38.2987 280.27 39.6275C282.467 40.786 284.318 42.3875 286.053 44.0571C287.634 45.5222 288.482 47.4644 289.561 49.2022C290.178 51.0421 290.718 52.9503 290.487 54.8925C290.371 56.1191 289.87 57.3117 289.484 58.5043C289.214 59.322 288.945 60.1398 288.636 60.9575C286.4 64.7738 282.66 68.0789 277.957 69.4419C276.145 70.1233 274.101 69.987 272.251 70.5322C271.595 72.0314 271.479 73.6329 270.863 75.1321C268.973 79.8684 264.887 84.0253 259.528 85.8312C257.908 86.3764 256.251 86.8534 254.554 87.1601C250.082 87.6712 245.417 87.126 241.446 85.1838C238.901 83.9572 236.704 82.2194 234.814 80.2432C228.145 82.015 220.626 81.095 214.766 77.7558C211.219 75.8136 208.443 72.9855 206.4 69.7826C206.014 67.8745 205.475 65.9664 204.704 64.1264C203.393 59.1516 204.742 53.8703 207.557 49.4407C208.752 47.6348 210.602 46.2378 212.26 44.7386C215.846 41.1949 221.282 39.832 226.41 39.0823C228.492 38.7075 230.496 39.6616 232.578 39.7638C233.773 39.832 235.2 39.7297 235.971 38.7757C237.32 37.1742 237.86 35.1298 239.441 33.6647C241.214 32.0632 242.911 30.2914 245.186 29.201C247.036 28.3151 248.925 27.4633 251.007 27.1225Z" fill="#E6E6E8" stroke="#E6E6E8" stroke-width="0.09375"/>
<path opacity="0.51" d="M259.104 27.1907C262.805 27.8721 266.198 29.644 268.665 32.1654C270.053 33.2898 270.747 34.8572 271.788 36.2202C272.328 37.072 273.523 37.1401 274.487 37.3446C277.88 37.8557 281.195 38.9801 283.855 40.8882C286.708 43.0008 289.214 45.863 289.561 49.2022C288.482 47.4644 287.634 45.5222 286.053 44.0571C284.318 42.3875 282.467 40.786 280.27 39.6275C277.533 38.2986 274.487 37.6853 271.441 37.2083C270.246 34.5165 267.547 32.7106 265.349 30.6662C263.614 29.0647 261.07 28.5195 259.104 27.1907Z" fill="#7B7B7B" stroke="#7B7B7B" stroke-width="0.09375"/>
<path opacity="0.51" d="M288.636 60.9575C288.945 60.1397 289.214 59.322 289.484 58.5042C289.407 59.356 289.022 60.4805 289.87 61.0938C291.296 62.116 293.031 62.6271 294.573 63.4789C296.887 64.7737 299.277 66.0345 301.282 67.7381C303.981 69.9188 307.412 71.6225 308.993 74.6551C306.641 72.9514 304.713 70.8388 302.361 69.1352C299.431 66.9204 296.27 64.9441 292.916 63.2404C291.451 62.5249 289.986 61.8093 288.636 60.9575Z" fill="#7B7B7B" stroke="#7B7B7B" stroke-width="0.09375"/>
<path d="M288.636 60.9575C289.986 61.8094 291.451 62.5249 292.916 63.2404C296.27 64.9441 299.431 66.9204 302.361 69.1352C304.713 70.8388 306.641 72.9514 308.993 74.6551C310.535 76.6313 312.347 78.4713 313.812 80.5498C316.357 84.1957 318.439 88.1482 319.865 92.2711C321.523 97.348 321.87 102.732 321.292 108.013C320.328 113.056 317.976 117.963 314.159 121.813C310.034 126.072 304.366 129.07 298.198 130.297C292.877 131.49 287.364 131.217 282.005 130.706C275.335 129.616 268.858 127.469 263.152 124.232C262.304 123.721 261.34 123.38 260.376 123.039C259.219 125.902 257.947 128.73 256.482 131.49C255.904 132.444 255.287 133.364 254.708 134.318C253.359 131.285 250.93 128.73 248.27 126.515C246.149 124.641 243.528 123.312 240.829 122.188C238.978 121.472 237.012 121.063 235.2 120.28C245.841 111.727 252.395 99.631 254.554 87.1601C256.251 86.8534 257.908 86.3764 259.528 85.8312C264.887 84.0253 268.974 79.8683 270.863 75.1321C271.48 73.6329 271.595 72.0314 272.251 70.5322C274.101 69.987 276.145 70.1233 277.957 69.4418C282.66 68.0789 286.4 64.7738 288.636 60.9575ZM282.853 81.9468C280.694 82.5942 279.113 84.5023 279.229 86.5467C279.229 89.1363 282.082 91.4192 285.012 91.0785C287.904 90.9422 290.255 88.3867 289.793 85.8653C289.6 82.969 285.86 80.9587 282.853 81.9468Z" fill="#FBC998" stroke="#FBC998" stroke-width="0.09375"/>
<path opacity="0.76" d="M205.205 70.2937C205.436 70.1915 205.899 69.987 206.13 69.8848C206.053 70.3619 205.706 70.7707 205.166 70.907C205.166 70.7367 205.205 70.4641 205.205 70.2937Z" fill="#969695" stroke="#969695" stroke-width="0.09375"/>
<path d="M206.13 69.8848L206.4 69.7826C208.443 72.9855 211.219 75.8136 214.766 77.7558C220.626 81.095 228.145 82.015 234.814 80.2432C236.704 82.2194 238.901 83.9572 241.446 85.1838C245.417 87.126 250.082 87.6712 254.554 87.1601C252.395 99.631 245.841 111.727 235.2 120.28C229.957 124.3 223.48 127.571 216.424 127.742C211.566 127.98 206.708 126.345 203.2 123.414C197.031 118.406 194.949 110.773 194.371 103.652C194.333 102.391 194.41 101.164 194.487 99.9036C194.68 98.4044 194.834 96.9051 194.68 95.3718C195.373 95.2355 195.335 94.4859 195.142 94.0429C195.682 91.4193 196.145 88.7616 197.108 86.206C197.186 86.0357 197.34 85.6268 197.417 85.4564C197.687 84.6727 197.957 83.9231 198.227 83.1735C198.342 82.9691 198.535 82.5942 198.612 82.4239C198.728 82.0831 198.882 81.7424 198.998 81.4017C199.075 81.1972 199.229 80.8565 199.345 80.652L199.422 80.4135C200.964 77.7899 202.429 75.1321 203.971 72.5085C204.357 71.9633 204.742 71.4522 205.166 70.907C205.706 70.7707 206.053 70.3618 206.13 69.8848Z" fill="#231F1E" stroke="#231F1E" stroke-width="0.09375"/>
<path d="M199.422 80.4136C200.463 77.5854 202.005 74.8936 203.971 72.5085C202.429 75.1321 200.964 77.7899 199.422 80.4136Z" fill="#E6E6E8" stroke="#E6E6E8" stroke-width="0.09375"/>
<path d="M196.183 87.9779C197.147 85.5927 197.378 82.935 199.036 80.7543C199.036 80.9246 198.998 81.2313 198.998 81.4017C198.882 81.7424 198.728 82.0831 198.612 82.4239C198.535 82.5942 198.342 82.9691 198.227 83.1735C197.957 83.9231 197.687 84.6727 197.417 85.4564C197.34 85.6268 197.186 86.0357 197.108 86.206C196.145 88.7616 195.682 91.4193 195.142 94.043C194.757 94.3837 194.525 94.8948 194.68 95.3718C194.834 96.9051 194.68 98.4044 194.487 99.9036C194.487 97.8251 194.41 95.7126 194.872 93.6341C195.296 91.76 195.451 89.8178 196.183 87.9779Z" fill="#BDBEC0" stroke="#BDBEC0" stroke-width="0.09375"/>
<path d="M199.036 80.7543L199.345 80.652C199.229 80.8565 199.075 81.1972 198.998 81.4016C198.998 81.2313 199.036 80.9246 199.036 80.7543Z" fill="#908E8F" stroke="#908E8F" stroke-width="0.09375"/>
<path d="M282.853 81.9468C285.86 80.9587 289.6 82.969 289.793 85.8653C290.255 88.3867 287.904 90.9422 285.012 91.0785C282.082 91.4193 279.229 89.1363 279.229 86.5467C279.113 84.5023 280.694 82.5942 282.853 81.9468Z" fill="#020102" stroke="#020102" stroke-width="0.09375"/>
<path opacity="0.91" d="M198.227 83.1735C198.342 82.969 198.535 82.5942 198.612 82.4238C198.535 82.5942 198.342 82.969 198.227 83.1735Z" fill="#8B8889" stroke="#8B8889" stroke-width="0.09375"/>
<path d="M197.108 86.206C197.186 86.0357 197.34 85.6268 197.417 85.4564C197.34 85.6268 197.186 86.0357 197.108 86.206Z" fill="#908E8F" stroke="#908E8F" stroke-width="0.09375"/>
<path opacity="0.93" d="M194.68 95.3718C194.525 94.8947 194.757 94.3836 195.142 94.0429C195.335 94.4859 195.373 95.2355 194.68 95.3718Z" fill="#939192" stroke="#939192" stroke-width="0.09375"/>
<path d="M168.81 100.687C172.395 98.9495 176.598 99.3925 180.53 99.3243C182.998 99.2562 185.465 99.7332 187.817 100.312C190.284 100.926 192.289 102.391 194.371 103.652C194.949 110.773 197.031 118.405 203.2 123.414C206.708 126.345 211.566 127.98 216.424 127.742C223.48 127.571 229.957 124.3 235.2 120.28C237.012 121.063 238.978 121.472 240.829 122.188C243.528 123.312 246.149 124.641 248.27 126.515C250.93 128.73 253.359 131.285 254.708 134.318C255.749 136.737 256.443 139.224 256.867 141.78C257.484 144.778 256.559 147.777 255.827 150.707C255.441 152.411 254.014 153.876 254.207 155.682C254.631 157.045 256.212 157.76 257.176 158.851C259.027 160.589 259.875 162.871 261.108 164.916L261.224 165.188C261.417 168.425 262.998 171.526 262.342 174.763C261.378 178.75 259.566 182.634 256.405 185.633C254.207 187.677 252.01 189.79 249.234 191.221C247.961 191.902 246.612 192.515 245.263 193.095C245.918 193.095 246.612 193.061 247.267 193.027C245.802 193.435 244.26 193.469 242.757 193.538C242.911 193.708 243.142 194.049 243.258 194.219H242.988C240.174 194.526 237.359 194.901 234.506 194.628C231.846 194.492 229.34 193.708 226.872 192.89C225.754 194.73 224.521 196.604 222.67 197.967C222.516 197.933 222.169 197.865 222.014 197.831C221.86 198.206 221.706 198.615 221.552 198.989C219.701 199.637 218.082 200.659 216.463 201.681C216.386 201.715 216.193 201.783 216.077 201.817C211.181 203.794 205.436 203.249 200.617 201.34C198.92 202.567 197.34 203.964 195.489 205.02C189.783 207.201 183.229 208.803 177.137 206.86C174.092 206.043 171.161 204.816 168.771 202.908C167.383 201.783 166.304 200.386 164.723 199.398C163.605 198.785 162.178 199.296 161.407 200.148C159.402 202.09 156.819 203.351 154.352 204.782C152.077 206.111 149.34 206.417 146.757 207.065C144.328 207.61 141.59 208.087 139.277 207.099C139.123 207.269 138.93 207.406 138.776 207.542C133.34 207.031 128.174 204.952 123.855 202.056C121.581 200.523 119.884 198.478 118.034 196.604C117.995 196.502 117.918 196.263 117.88 196.127C117.841 195.991 117.764 195.718 117.725 195.582C117.648 195.139 117.571 194.662 117.533 194.219C116.723 194.219 115.913 194.185 115.104 194.321C114.063 194.662 113.137 195.309 112.174 195.821C111.402 196.093 110.631 196.332 109.822 196.502C108.896 196.672 107.933 196.877 106.969 197.013C104.347 197.252 101.725 196.979 99.1036 196.809C96.559 196.468 93.9759 195.821 91.7012 194.662C91.6241 194.56 91.3928 194.424 91.3157 194.355C89.5422 193.061 87.5759 192.038 86.0337 190.505C84.4916 188.938 82.5639 187.711 81.0603 186.076C79.788 184.167 79.2868 181.953 78.5157 179.874C77.5133 177.148 77.359 174.252 77.5133 171.424C75.894 170.674 74.1205 170.299 72.5783 169.482C70.5735 167.062 67.0265 166.177 65.0988 163.689C62.6699 160.589 60.5494 157.181 59.6627 153.433C59.1615 151.355 59.2386 149.276 59.2771 147.198C59.3157 145.324 60.0096 143.552 60.6651 141.814C61.6289 139.361 62.8627 136.873 65.0988 135.136C67.335 133.262 69.3398 131.149 71.7687 129.479C73.3494 128.355 75.4699 128.321 77.1277 127.367C78.6699 126.379 78.4771 124.539 78.7856 123.074C79.7109 116.804 84.5687 111.523 90.3904 108.081C93.2434 106.139 96.7904 105.185 100.337 104.878C103.46 104.81 106.66 104.64 109.745 105.355C113.253 106.071 116.106 108.115 119.075 109.819C119.769 110.262 120.655 109.989 121.349 109.717C122.776 109.035 123.701 107.809 124.858 106.855C127.21 104.878 129.986 103.413 132.723 101.846C133.687 101.607 134.612 101.301 135.576 101.096C137.928 100.551 140.357 100.721 142.747 100.721C145.407 100.755 148.106 100.517 150.689 101.096C153.234 101.573 155.586 102.698 157.783 103.958C158.593 104.299 159.441 105.083 160.443 104.776C161.831 104.231 162.872 103.175 164.299 102.629C165.802 102.016 167.383 101.471 168.81 100.687ZM223.827 195.752C223.325 195.855 222.631 196.366 222.786 196.877C223.364 197.149 224.482 196.093 223.827 195.752Z" fill="#E6E6E8" stroke="#E6E6E8" stroke-width="0.09375"/>
<path opacity="0.38" d="M120.386 109.478C124.01 106.412 127.595 102.766 132.723 101.846C129.986 103.413 127.21 104.878 124.858 106.855C123.701 107.809 122.776 109.035 121.349 109.717C120.655 109.989 119.769 110.262 119.075 109.819C116.106 108.115 113.253 106.071 109.745 105.355C106.66 104.64 103.46 104.81 100.337 104.878C96.7903 105.185 93.2433 106.139 90.3903 108.081C84.5686 111.523 79.7108 116.804 78.7855 123.074C78.4771 124.539 78.6699 126.379 77.1277 127.367C75.4699 128.321 73.3494 128.355 71.7686 129.479C69.3397 131.149 67.3349 133.262 65.0988 135.136C62.8626 136.873 61.6289 139.361 60.665 141.814C60.0096 143.552 59.3156 145.324 59.2771 147.198C59.2385 149.276 59.1614 151.355 59.6626 153.433C60.5494 157.181 62.6699 160.589 65.0988 163.689C67.0265 166.177 70.5735 167.062 72.5783 169.482C70.2265 168.528 68.2988 167.028 66.2554 165.734C63.8265 164.098 62.7855 161.44 61.2048 159.226C59.3156 156.568 58.6217 153.365 58.8144 150.264C58.9301 148.015 58.4674 145.698 59.2 143.518C60.0482 140.962 61.359 138.543 62.8626 136.226C63.9036 134.59 65.6385 133.466 67.1036 132.103C68.5301 130.774 70.0337 129.377 72 128.628C73.5036 127.98 75.2385 127.742 76.7036 126.958C78.1301 125.902 77.9373 124.096 78.2072 122.665C78.4771 119.325 80.4819 116.429 82.4096 113.635C84.8 110.296 88.5397 107.945 92.4723 106.207C95.0554 105.219 97.9084 104.64 100.723 104.674C104.424 104.878 108.279 104.265 111.826 105.423C115.026 106.139 117.687 107.945 120.386 109.478Z" fill="#5F5F5F" stroke="#5F5F5F" stroke-width="0.09375"/>
<path opacity="0.5" d="M254.708 134.318C255.287 133.364 255.904 132.444 256.482 131.49C256.019 132.785 255.017 134.182 255.788 135.544C258.525 141.576 257.908 148.527 255.055 154.455C254.631 155.341 255.557 156.057 256.173 156.67C258.68 158.919 260.684 161.747 261.108 164.916C259.875 162.871 259.026 160.589 257.176 158.851C256.212 157.76 254.631 157.045 254.207 155.682C254.014 153.876 255.441 152.411 255.826 150.707C256.559 147.777 257.484 144.778 256.867 141.78C256.443 139.224 255.749 136.737 254.708 134.318Z" fill="#777777" stroke="#777777" stroke-width="0.09375"/>
<path opacity="0.37" d="M261.224 165.188C263.036 168.425 263.152 172.208 262.805 175.751C261.841 179.806 259.759 183.724 256.559 186.791C254.786 188.393 253.051 190.164 250.737 191.187C250.12 191.221 249.426 191.323 249.118 191.868C249.041 191.97 248.848 192.209 248.771 192.311C248.347 192.038 247.961 192.107 247.692 192.55C247.576 192.652 247.383 192.89 247.267 193.027C246.612 193.061 245.918 193.095 245.263 193.095C246.612 192.515 247.961 191.902 249.234 191.221C252.01 189.79 254.207 187.677 256.405 185.633C259.566 182.634 261.378 178.75 262.342 174.763C262.998 171.526 261.417 168.425 261.224 165.188Z" fill="#5C5C5C" stroke="#5C5C5C" stroke-width="0.09375"/>
<path opacity="0.35" d="M249.118 191.868C249.427 191.323 250.12 191.221 250.737 191.187C250.429 191.664 249.812 192.209 249.118 191.868Z" fill="#525253" stroke="#525253" stroke-width="0.09375"/>
<path opacity="0.42" d="M247.692 192.549C247.961 192.107 248.347 192.038 248.771 192.311C248.501 192.686 248.154 192.788 247.692 192.549Z" fill="#616162" stroke="#616162" stroke-width="0.09375"/>
<path d="M226.872 192.89C229.34 193.708 231.846 194.492 234.506 194.628C237.359 194.901 240.174 194.526 242.988 194.219C243.258 200.012 243.027 205.804 243.104 211.597C243.065 225.567 243.181 239.537 243.181 253.507C243.181 255.211 243.296 256.914 242.988 258.584C242.602 260.867 241.022 262.877 238.978 264.274C235.778 266.421 231.19 266.693 227.682 265.024C224.713 263.593 222.439 260.935 222.13 257.937C221.899 255.79 222.053 253.609 222.014 251.463C221.976 234.153 222.092 216.844 221.976 199.535C222.207 198.989 222.439 198.478 222.67 197.967C224.52 196.604 225.754 194.73 226.872 192.89Z" fill="#231F1E" stroke="#231F1E" stroke-width="0.09375"/>
<path opacity="0.55" d="M112.174 195.821C113.137 195.309 114.063 194.662 115.104 194.321C115.913 194.185 116.723 194.219 117.533 194.219C117.571 194.662 117.648 195.139 117.725 195.582L117.417 195.446C116.646 195.139 115.721 194.696 114.872 195.105C113.986 195.548 113.214 196.127 112.521 196.775L112.328 197.013C112.289 196.741 112.212 196.127 112.174 195.821Z" fill="#7F7F80" stroke="#7F7F80" stroke-width="0.09375"/>
<path d="M242.988 194.219H243.258C243.412 208.257 243.181 222.33 243.373 236.368C251.316 240.252 257.793 246.215 262.651 252.996C268.819 249.112 276.299 246.897 283.855 247.033C295.422 247.067 306.718 252.621 312.887 261.276C316.357 265.944 318.13 271.464 318.554 277.018H48.1349C48.3277 268.67 51.4121 260.424 56.8868 253.609C64.6747 243.66 77.5133 236.913 91.1615 235.687C91.2 228.906 91.1615 222.125 91.1615 215.345C91.2386 208.36 91.0072 201.34 91.3157 194.355C91.3928 194.424 91.6241 194.56 91.7012 194.662C91.5855 195.514 91.3542 196.4 91.3157 197.286C91.4313 216.265 91.2771 235.21 91.2771 254.189C91.2771 255.96 91.1229 257.766 91.6627 259.504C92.6651 262.537 95.5952 264.99 99.0651 265.808C103.614 266.898 108.819 265.024 111.094 261.344C112.867 258.652 112.366 255.449 112.405 252.485C112.328 247.715 112.559 242.944 112.289 238.208C113.484 238.549 114.68 238.855 115.836 239.196C116.453 239.435 117.108 239.673 117.725 239.912C117.764 230.133 117.725 220.354 117.725 210.574C117.802 205.77 117.61 200.932 117.88 196.127C117.918 196.264 117.995 196.502 118.034 196.604C117.841 215.345 117.995 234.085 117.918 252.826C117.957 254.836 117.764 256.846 118.188 258.823C118.882 261.719 121.272 264.206 124.357 265.331C127.981 266.762 132.53 266.182 135.499 263.831C137.735 262.094 139.123 259.538 139.084 256.914C139.084 242.365 139.084 227.85 139.084 213.3C139.046 211.46 139.2 209.654 138.93 207.814C139.084 207.849 139.393 207.883 139.586 207.917C139.277 213.777 139.508 219.672 139.431 225.567C139.47 232.041 139.393 238.549 139.47 245.023C142.747 244.682 145.908 243.898 149.186 243.524C151.036 243.592 152.925 243.694 154.814 243.592C157.552 243.898 160.328 244.171 163.027 244.716C165.378 245.738 167.884 246.488 170.12 247.715C171.007 248.089 172.28 248.805 173.166 248.021C174.516 246.829 175.518 245.329 176.906 244.171C178.872 242.229 181.533 241.036 183.653 239.264C185.041 238.14 186.622 237.254 188.318 236.538C190.4 235.653 192.366 234.562 194.41 233.642C194.602 233.676 194.988 233.744 195.181 233.744C195.373 235.55 195.374 237.39 195.335 239.196C195.335 244.886 195.335 250.577 195.296 256.267C195.258 258.414 195.952 260.628 197.494 262.366C199.422 264.717 202.66 266.148 205.976 266.08C210.255 266.182 214.304 263.661 215.884 260.185C216.887 257.971 216.501 255.517 216.578 253.166C216.578 236.811 216.501 220.456 216.578 204.1C216.54 203.317 216.27 202.567 216.077 201.818C216.193 201.783 216.386 201.715 216.463 201.681C216.771 201.92 217.118 202.158 217.427 202.431C217.311 202.976 217.234 203.521 217.234 204.066C217.465 212.551 217.234 221.035 217.349 229.519C218.776 229.485 220.164 229.485 221.59 229.519C221.667 219.672 221.629 209.859 221.59 200.012C221.706 199.909 221.86 199.637 221.976 199.535C222.092 216.844 221.976 234.153 222.014 251.463C222.053 253.609 221.899 255.79 222.13 257.937C222.439 260.935 224.713 263.593 227.682 265.024C231.19 266.693 235.778 266.421 238.978 264.274C241.022 262.877 242.602 260.867 242.988 258.584C243.296 256.914 243.181 255.211 243.181 253.507C243.181 239.537 243.065 225.567 243.104 211.597C243.027 205.804 243.258 200.012 242.988 194.219Z" fill="#BDBEC0" stroke="#BDBEC0" stroke-width="0.09375"/>
<path d="M91.3157 197.286C91.3542 196.4 91.5855 195.514 91.7012 194.662C93.9759 195.821 96.559 196.468 99.1036 196.809C101.687 197.388 104.347 197.388 106.969 197.013C107.933 196.877 108.896 196.672 109.822 196.502C110.554 196.366 111.287 196.229 112.019 196.093C112.173 205.804 112.058 215.515 112.096 225.226C112.173 229.451 111.865 233.676 112.289 237.901V238.208C112.559 242.944 112.328 247.715 112.405 252.485C112.366 255.449 112.867 258.652 111.094 261.344C108.819 265.024 103.614 266.898 99.0651 265.808C95.5952 264.99 92.6651 262.536 91.6626 259.504C91.1229 257.766 91.2771 255.96 91.2771 254.188C91.2771 235.21 91.4313 216.265 91.3157 197.286Z" fill="#231F1E" stroke="#231F1E" stroke-width="0.09375"/>
<path opacity="0.25" d="M117.417 195.446L117.725 195.582C117.764 195.718 117.841 195.991 117.88 196.127C117.61 200.932 117.802 205.77 117.725 210.574C117.725 220.353 117.764 230.133 117.725 239.912C117.108 239.673 116.453 239.435 115.836 239.196C115.759 239.094 115.528 238.855 115.412 238.753C116.067 238.787 116.723 238.821 117.34 238.889C117.494 224.408 117.34 209.927 117.417 195.446Z" fill="#3F3E3F" stroke="#3F3E3F" stroke-width="0.09375"/>
<path opacity="0.78" d="M223.826 195.752C224.482 196.093 223.364 197.149 222.786 196.877C222.631 196.366 223.325 195.855 223.826 195.752Z" fill="#B4B3B4" stroke="#B4B3B4" stroke-width="0.09375"/>
<path opacity="0.92" d="M99.1036 196.809C101.725 196.979 104.347 197.252 106.969 197.013C104.347 197.388 101.687 197.388 99.1036 196.809Z" fill="#8C8A8B" stroke="#8C8A8B" stroke-width="0.09375"/>
<path d="M118.034 196.604C119.884 198.478 121.581 200.523 123.855 202.056C128.174 204.952 133.34 207.031 138.776 207.542L138.93 207.814C139.2 209.654 139.046 211.46 139.084 213.3C139.084 227.85 139.084 242.365 139.084 256.914C139.123 259.538 137.735 262.094 135.499 263.831C132.53 266.182 127.981 266.762 124.357 265.331C121.272 264.206 118.882 261.719 118.188 258.823C117.764 256.846 117.957 254.836 117.918 252.826C117.995 234.085 117.841 215.345 118.034 196.604Z" fill="#231F1E" stroke="#231F1E" stroke-width="0.09375"/>
<path opacity="0.25" d="M112.328 197.013L112.52 196.775C112.79 199.092 112.636 201.443 112.675 203.76C112.675 209.45 112.675 215.106 112.675 220.796C112.598 226.282 112.829 231.768 112.559 237.22L112.251 237.186C112.289 223.795 112.096 210.404 112.328 197.013Z" fill="#2D2C2C" stroke="#2D2C2C" stroke-width="0.09375"/>
<path opacity="0.38" d="M222.014 197.831C222.169 197.865 222.516 197.933 222.67 197.967C222.439 198.478 222.207 198.989 221.976 199.535C221.86 199.637 221.706 199.909 221.59 200.012C219.933 200.352 218.545 201.272 217.427 202.431C217.118 202.158 216.771 201.92 216.463 201.681C218.082 200.659 219.701 199.637 221.552 198.989C221.706 198.615 221.86 198.206 222.014 197.831Z" fill="#5F5F5F" stroke="#5F5F5F" stroke-width="0.09375"/>
<path opacity="0.63" d="M161.407 200.148C162.178 199.296 163.605 198.785 164.723 199.398C166.304 200.386 167.383 201.783 168.771 202.908C171.161 204.816 174.092 206.043 177.137 206.86L176.945 207.201C173.86 206.758 171.123 205.327 168.655 203.692C166.998 202.567 165.88 200.932 164.106 199.909C163.374 199.501 162.718 200.148 162.178 200.489C160.906 201.579 159.557 202.533 158.053 203.351C156.048 204.407 154.275 205.872 151.961 206.451C147.913 207.303 143.788 208.428 139.586 207.917C139.393 207.883 139.084 207.848 138.93 207.814L138.776 207.542C138.93 207.406 139.123 207.269 139.277 207.099C141.59 208.087 144.328 207.61 146.757 207.065C149.34 206.417 152.077 206.111 154.352 204.782C156.819 203.351 159.402 202.09 161.407 200.148Z" fill="#939394" stroke="#939394" stroke-width="0.09375"/>
<path d="M195.489 205.02C197.34 203.964 198.92 202.567 200.617 201.34C205.436 203.249 211.181 203.794 216.077 201.817C216.27 202.567 216.54 203.317 216.578 204.1C216.501 220.456 216.578 236.811 216.578 253.166C216.501 255.517 216.887 257.971 215.884 260.185C214.304 263.661 210.255 266.182 205.976 266.08C202.66 266.148 199.422 264.717 197.494 262.366C195.952 260.628 195.258 258.414 195.296 256.267C195.335 250.577 195.335 244.886 195.335 239.196C195.373 237.39 195.373 235.55 195.181 233.744C194.988 233.744 194.602 233.676 194.41 233.642C194.834 233.301 195.219 232.961 195.643 232.62C195.682 232.756 195.72 232.995 195.72 233.131C195.836 226.862 195.72 220.592 195.759 214.322C195.72 211.46 195.952 208.564 195.566 205.702C195.528 205.531 195.528 205.191 195.489 205.02Z" fill="#231F1E" stroke="#231F1E" stroke-width="0.09375"/>
<path opacity="0.37" d="M177.137 206.86C183.229 208.803 189.783 207.201 195.489 205.02C195.528 205.191 195.528 205.531 195.566 205.702C195.296 213.675 195.528 221.682 195.412 229.656C195.373 230.644 195.451 231.632 195.643 232.62C195.219 232.961 194.834 233.301 194.41 233.642C192.366 234.562 190.4 235.653 188.318 236.538C186.622 237.254 185.041 238.14 183.653 239.264C181.533 241.036 178.872 242.229 176.906 244.171C175.518 245.329 174.516 246.829 173.166 248.021C172.28 248.805 171.007 248.089 170.12 247.715C167.884 246.488 165.378 245.738 163.026 244.716C164.414 244.886 165.841 245.023 167.075 245.602C168.848 246.283 170.429 247.374 172.357 247.612C173.398 246.829 174.053 245.738 174.94 244.818C177.407 242.058 180.877 240.287 183.923 238.106C185.773 236.845 188.01 236.061 189.937 234.903C191.287 234.085 192.906 233.71 194.333 232.961C195.489 232.211 195.296 230.78 195.335 229.656C195.219 221.785 195.412 213.914 195.219 206.043C191.634 207.201 187.855 208.223 184 208.121C181.61 208.053 179.065 208.428 176.945 207.201L177.137 206.86Z" fill="#5C5C5C" stroke="#5C5C5C" stroke-width="0.09375"/>
<path opacity="0.46" d="M112.251 237.186L112.559 237.22C113.561 237.663 114.487 238.208 115.412 238.753C115.528 238.855 115.759 239.094 115.836 239.196C114.68 238.855 113.484 238.549 112.289 238.208V237.901C112.251 237.731 112.251 237.356 112.251 237.186Z" fill="#5D5D5D" stroke="#5D5D5D" stroke-width="0.09375"/>
<path opacity="0.37" d="M149.186 243.523C151.036 243.319 152.925 243.353 154.814 243.592C152.925 243.694 151.036 243.592 149.186 243.523Z" fill="#5C5C5C" stroke="#5C5C5C" stroke-width="0.09375"/>
</g>
<defs>
<clipPath id="clip0">
<rect x="-8" width="384" height="277.018" fill="white"/>
</clipPath>
</defs>
</svg>
