<svg width="409" height="720" viewBox="0 0 409 720" fill="none" xmlns="http://www.w3.org/2000/svg">
<path d="M146.674 142.171L79.6747 113.609L110.458 153.512L146.674 142.171Z" fill="#F15A29"/>
<path d="M422.795 699.449L32.5942 296.329L413.5 318.577L422.795 699.449Z" fill="#F15A29"/>
<path d="M426.472 272.168L269.068 112.555L160.246 221.613L341.939 728.173L363.004 745.586L415.361 355.049L426.472 272.168Z" fill="#F15A29"/>
<path d="M246.108 466.034L127.435 617.229L478.07 908L515.159 794.182L321.407 454.201L246.108 466.034Z" fill="#F15A29"/>
<path d="M267.824 111.46C262.472 113.657 257.607 117.364 252.621 120.521C242.161 127.386 231.944 134.525 221.97 142.213C220.146 143.86 217.835 144.272 215.646 144.135C211.267 144.272 207.01 143.86 202.753 143.037C202.023 143.037 200.442 142.762 199.713 142.762C184.996 142.487 170.157 142.625 155.44 142.625C153.616 142.762 151.791 143.037 149.967 143.311C145.71 143.86 141.453 144.135 137.196 144.272C136.709 144.409 135.736 144.409 135.371 144.547C131.236 145.096 126.858 146.469 122.844 144.272C119.925 142.076 117.371 139.33 114.087 137.682C113.6 137.27 112.505 136.447 112.019 136.172C109.708 133.838 107.154 132.191 104.356 130.818C103.87 130.406 102.775 129.582 102.289 129.308C93.7748 123.679 85.7474 117.089 76.6254 112.97C76.9902 115.991 76.6253 119.148 75.7739 122.031C75.6523 122.58 75.4091 123.816 75.2875 124.365C75.2875 130.269 75.1658 136.035 74.436 141.938C73.3414 154.569 73.7062 167.199 74.3144 179.967C72.7332 184.635 69.6926 188.479 67.5032 193.01C58.9893 209.484 51.4484 226.92 45.1237 244.63C44.8805 245.317 44.394 246.69 44.1508 247.239C40.0154 257.673 36.7314 268.381 33.2042 279.09C32.2312 282.248 30.8933 285.543 30.6501 288.975C30.5284 289.798 30.2852 291.309 30.042 292.132C44.5156 311.765 62.8815 327.553 83.1932 338.673C92.437 343.478 102.167 348.146 112.262 349.931C113.722 349.931 115.303 350.343 116.641 351.029L117.614 351.441C119.56 351.853 121.506 351.99 123.452 352.265C123.695 354.05 124.06 355.697 124.303 357.482L124.547 358.58C125.155 360.228 125.398 362.012 125.398 363.797C125.398 364.621 125.641 365.994 125.763 366.818C126.249 368.877 126.614 370.936 126.614 373.133C126.736 377.114 127.344 381.096 129.169 384.528C129.412 385.214 129.898 386.45 130.263 387.136C134.034 395.786 141.331 403.336 149.845 404.984C151.426 404.847 152.886 405.259 154.345 405.945C159.94 407.043 165.778 406.357 171.495 406.494C176.847 406.357 182.198 407.181 187.55 405.945C189.374 405.259 191.199 404.984 193.145 404.984C203.605 403.474 211.146 393.177 215.402 383.018C226.227 393.177 236.444 404.16 246.661 415.006C254.567 423.243 261.134 432.854 268.919 441.091C263.932 450.564 257.851 459.488 250.674 467.039C246.904 471.157 242.039 473.903 237.052 475.688C235.593 476.512 234.012 476.786 232.43 476.649L231.214 476.923C230.119 477.747 228.903 478.159 227.444 478.022L226.349 478.296C225.254 479.12 224.038 479.532 222.7 479.395C222.092 479.395 220.754 479.532 220.146 479.669C219.538 479.944 218.2 480.356 217.592 480.63L216.497 481.042C215.524 481.866 214.308 482.278 212.97 482.14L211.754 482.278C210.781 483.239 209.564 483.651 208.227 483.651C199.469 485.573 190.834 488.73 182.32 492.162C180.252 493.535 177.941 494.359 175.63 494.496C170.887 495.32 166.143 496.83 161.886 499.302C160.184 500.4 158.237 501.361 156.048 501.361C151.67 501.91 147.413 503.42 143.399 505.617C142.548 506.578 141.453 506.99 140.115 506.99C138.169 507.127 136.223 507.813 134.277 508.5C134.155 509.324 133.912 511.108 133.79 511.932C133.304 515.502 132.574 518.934 131.723 522.366C131.723 523.052 131.479 524.151 131.479 524.837C131.601 526.21 131.236 527.583 130.506 528.819L130.263 530.054C130.385 531.564 130.141 532.937 129.29 534.173C129.29 534.859 129.047 536.37 128.925 537.056C129.169 538.566 128.804 539.939 128.074 541.175L127.831 542.41C127.952 543.92 127.709 545.293 126.858 546.529C126.858 547.215 126.614 548.726 126.493 549.412C126.736 550.922 126.371 552.295 125.641 553.531L125.398 554.766C125.641 556.276 125.276 557.512 124.668 558.748C124.425 559.434 124.182 560.67 124.06 561.219C123.452 564.788 122.844 568.358 121.992 571.79C121.992 572.477 121.749 573.712 121.749 574.261C121.871 575.771 121.506 577.007 120.776 578.243L120.533 579.616C120.776 580.988 120.411 582.361 119.56 583.597C119.56 584.283 119.317 585.794 119.195 586.48C119.438 587.99 119.073 589.363 118.344 590.599L118.1 591.834C118.344 593.344 117.979 594.717 117.127 595.953C117.127 596.639 116.884 598.15 116.884 598.836C117.006 600.346 116.641 601.719 115.911 602.955L115.668 604.465C115.546 606.524 115.425 608.584 115.303 610.643C116.398 616.958 122.357 620.253 127.587 620.665C134.155 621.351 140.723 621.351 147.291 620.528C160.305 618.468 173.684 611.329 180.374 597.875C182.198 594.031 184.266 590.187 184.752 585.794C184.996 583.048 185.725 580.577 186.698 578.105C186.82 577.282 187.185 575.909 187.307 575.222C187.185 573.438 187.428 571.653 188.158 569.868C188.28 569.182 188.401 567.671 188.523 566.985C188.401 563.827 188.644 560.67 189.253 557.787C189.374 557.1 189.496 555.865 189.617 555.178C189.861 553.393 189.982 551.471 190.226 549.687C193.388 549.549 196.55 549.412 199.591 549.275C200.199 549.275 201.172 549.137 201.659 549C207.01 548.176 212.483 548.039 217.957 548.176C219.781 548.039 221.606 547.765 223.43 547.49C227.687 546.941 231.944 546.666 236.201 546.666C238.025 546.529 239.85 546.254 241.674 546.117C245.08 545.705 248.607 545.431 252.134 545.156C252.985 545.019 254.688 544.744 255.661 544.607C258.337 543.92 261.013 543.646 263.689 543.646C264.418 543.509 265.756 543.371 266.365 543.234C268.675 542.548 271.108 542.273 273.419 542.41C274.392 542.273 276.46 541.998 277.433 541.861C279.622 541.175 281.933 540.9 284.244 540.9C284.73 540.9 285.947 540.763 286.555 540.763C290.933 539.939 295.312 538.978 299.69 538.154L300.664 537.742C302.001 537.056 303.461 536.644 305.042 536.781C309.786 536.507 314.529 534.722 318.908 532.525C319.151 532.114 319.759 531.29 320.002 530.878C320.246 531.29 320.732 532.251 320.975 532.663C327.3 550.373 332.408 568.632 338.49 586.48C339.341 587.441 339.706 588.677 339.584 590.187C339.584 591.834 339.949 593.344 340.801 594.717C341.774 595.816 342.138 597.051 341.895 598.424C342.017 600.483 342.382 602.543 343.355 604.328C344.206 605.426 344.449 606.799 344.328 608.172C344.328 608.858 344.449 610.368 344.571 611.055C345.422 612.153 345.787 613.389 345.666 614.899C346.517 626.019 346.76 637.277 345.666 648.397C345.787 649.77 345.544 651.143 344.814 652.241C344.085 653.614 343.476 655.125 342.868 656.497C341.895 656.497 339.949 656.497 338.976 656.497C336.3 656.635 333.625 656.223 330.949 655.536C329.976 655.536 328.03 655.536 327.057 655.536C324.381 656.223 321.705 656.497 319.029 656.36C309.299 656.772 300.907 664.46 296.285 673.796C293.366 679.974 290.447 686.564 289.595 693.703C289.717 695.213 289.474 696.448 288.622 697.547C288.501 698.371 288.379 699.743 288.257 700.43C288.379 702.215 288.379 704.137 287.528 705.647L287.041 706.882C291.177 707.294 295.312 707.432 299.447 707.432C300.907 707.294 302.366 707.157 303.704 706.882C311.975 705.647 320.246 706.196 328.638 705.784C329.124 705.784 330.097 705.647 330.584 705.647C339.584 704.274 348.706 704.823 357.828 704.549C358.558 704.411 360.139 704.274 360.869 704.137C369.14 703.038 377.532 703.176 385.803 703.313C387.749 703.176 389.573 702.901 391.519 702.627C391.519 700.567 392.492 698.92 393.465 697.41C395.776 692.742 396.871 687.387 397.479 682.033C397.357 680.66 397.722 679.287 398.574 678.326C398.695 677.503 398.817 676.13 398.817 675.306C398.817 673.521 399.06 671.737 399.668 670.089C399.79 669.403 400.033 667.892 400.155 667.206C400.033 665.009 400.398 662.813 400.885 660.616C400.885 659.93 401.128 658.694 401.25 658.008C401.615 654.164 401.979 650.319 402.466 646.475C402.466 645.926 402.587 644.828 402.587 644.279C403.196 629.04 402.831 613.663 402.831 598.424C402.709 596.777 402.587 595.266 402.344 593.619C401.858 589.638 401.614 585.656 401.371 581.812C401.25 580.851 401.006 578.929 400.885 577.968C400.277 575.36 400.033 572.751 400.033 570.143C399.912 569.319 399.79 567.809 399.668 567.122C399.182 564.926 398.817 562.592 398.695 560.395L398.452 559.022C397.966 556.826 397.601 554.629 397.601 552.432C397.601 551.197 397.357 549 397.236 547.764C396.506 546.666 396.141 545.293 396.385 543.783L396.141 542.548C395.533 540.763 395.168 538.978 395.168 537.193C395.047 536.37 394.925 534.997 394.925 534.173C394.074 533.075 393.83 531.702 393.952 530.192C393.83 529.505 393.709 527.995 393.587 527.308C392.736 526.21 392.492 524.837 392.736 523.464C392.857 522.778 393.101 521.405 393.222 520.719C394.074 520.581 395.898 520.307 396.749 520.169C398.087 519.895 399.182 520.307 400.155 521.268C400.763 521.405 402.101 521.542 402.831 521.68C404.412 521.542 405.993 521.954 407.453 522.641C408.061 522.778 409.399 523.052 410.007 523.052C412.074 523.052 414.021 523.464 415.845 524.014C416.818 524.014 418.764 524.014 419.737 524.014C421.196 523.327 422.656 522.915 424.237 523.052C426.427 522.915 428.859 522.778 430.683 521.405C431.656 520.444 432.751 520.032 434.089 520.307C437.495 520.032 440.9 518.934 443.941 517.286C445.036 516.325 446.13 515.913 447.346 516.188C450.752 515.776 454.158 514.678 457.32 513.168C458.293 512.207 459.388 511.795 460.604 512.069C462.915 511.932 465.104 511.383 467.05 510.422C468.145 509.461 469.361 509.049 470.577 509.324L471.794 509.049C472.888 508.088 474.105 507.813 475.442 507.813L476.659 507.676C477.753 506.715 478.97 506.441 480.308 506.578L481.524 506.303C482.618 505.48 483.956 505.068 485.294 505.205L486.511 504.93C487.605 504.107 488.821 503.695 490.159 503.832L491.376 503.557C492.835 502.871 494.538 502.459 496.119 502.322L497.335 502.185C498.917 501.498 500.498 501.086 502.201 501.224C502.809 501.086 504.147 500.812 504.755 500.674C506.336 499.988 507.917 499.576 509.498 499.576L510.714 499.302C512.661 498.752 514.728 498.478 516.796 498.34C517.404 498.203 518.742 498.066 519.35 497.929C521.661 497.379 523.972 496.968 526.283 497.105C527.256 496.968 528.959 496.83 529.932 496.83C534.918 496.144 540.148 495.046 545.135 496.83C549.149 508.912 552.676 521.13 556.933 533.075C564.717 553.943 579.921 569.182 593.665 584.833C600.597 592.795 607.895 601.033 610.814 611.878C611.909 616.272 611.787 620.94 610.814 625.195C609.963 628.353 608.868 631.374 608.26 634.531C608.017 635.218 607.53 636.453 607.287 637.14C603.273 645.514 599.138 653.752 593.543 660.891C592.935 662.675 590.867 662.264 590.137 660.891C578.218 656.772 564.231 658.282 554.136 666.931C545.378 674.757 538.202 685.191 534.918 697.272C534.918 700.155 534.918 703.176 534.918 706.059C538.202 707.294 541.608 705.921 544.892 706.196C566.42 706.196 587.826 706.059 609.355 706.059C616.287 706.333 623.22 705.784 630.031 706.745C652.776 673.933 675.52 641.121 697.291 607.348C699.359 603.916 702.278 600.483 701.67 596.09C701.305 589.363 697.17 584.009 694.372 578.38C695.71 578.655 697.048 578.929 698.386 579.204C698.872 579.478 700.089 580.302 700.575 580.577C703.738 582.636 707.143 584.146 710.792 584.695C712.86 584.833 714.806 585.794 716.508 586.892C720.279 589.226 724.536 590.187 728.793 590.461C730.374 590.324 731.955 590.736 733.536 591.422L734.631 591.697C736.699 591.697 738.766 591.697 740.591 592.795C741.929 593.344 743.267 594.168 744.483 594.855C746.186 595.678 745.699 598.15 745.699 599.66C745.821 600.484 745.942 601.994 746.064 602.817C746.672 604.465 746.915 606.25 746.794 608.034C746.794 609.956 746.915 612.016 747.402 613.938C747.888 615.585 748.132 617.233 748.132 619.017C748.132 620.116 748.375 622.45 748.497 623.548C749.105 626.568 749.348 629.589 749.348 632.609C749.348 633.57 749.47 635.629 749.591 636.591C750.078 644.279 751.294 652.104 749.47 659.518C743.631 659.38 737.428 658.557 732.198 661.989C731.59 662.401 730.496 663.087 730.009 663.362C717.482 671.599 710.305 687.113 706.17 702.215C706.413 702.764 706.9 703.725 707.143 704.274C713.103 704.96 719.184 704.686 725.266 705.51C727.82 705.784 730.617 706.059 733.293 706.059C747.645 706.059 761.997 705.647 776.349 706.882C778.174 707.157 779.998 707.294 781.823 707.294C788.147 707.432 794.593 707.844 800.796 706.471C800.675 705.235 800.432 702.626 800.31 701.391C799.945 699.606 800.432 697.821 801.04 696.174C801.161 695.487 801.283 693.977 801.405 693.154C801.405 690.957 801.769 688.76 802.256 686.564C802.378 685.877 802.621 684.367 802.621 683.681C802.742 680.935 802.986 678.189 803.594 675.443L803.716 674.07C803.837 671.462 804.202 668.716 804.689 665.97C804.81 665.284 805.053 663.774 805.053 663.087C805.053 659.93 805.297 656.772 805.905 653.889C806.026 652.791 806.391 650.869 806.513 649.908C806.635 645.514 806.756 641.121 807.364 636.728C807.608 635.08 807.729 633.57 807.851 631.923C807.851 617.507 808.216 602.955 807.729 588.539C807.608 587.853 807.364 586.755 807.243 586.068C806.391 583.597 806.27 580.988 806.391 578.38C806.27 577.282 806.148 575.085 806.026 573.987C805.175 572.888 804.81 571.516 805.053 570.143C804.08 561.631 800.675 552.844 793.985 548.039C788.877 544.195 783.282 541.037 778.052 537.331C763.7 527.446 750.807 514.678 741.685 498.752C737.793 492.025 736.091 484.062 734.145 476.374C733.536 474.864 733.171 473.079 733.293 471.295C733.293 470.745 733.171 469.51 733.171 468.823C732.198 460.586 731.955 452.349 733.293 444.249L733.415 443.013C733.658 440.679 734.509 437.11 737.185 437.247H738.037C738.158 436.286 738.401 435.188 738.401 434.227C737.55 432.442 738.523 430.52 739.983 429.696C742.05 428.323 742.537 425.577 743.51 423.243C746.186 415.693 749.226 408.004 750.686 399.904C751.294 394.687 752.024 389.333 752.754 384.116C753.118 380.409 753.118 376.702 753.24 373.133C757.254 376.977 759.93 382.194 762.97 386.862C770.268 398.531 776.714 410.75 783.404 422.832C803.107 457.428 825.244 490.378 851.272 519.208C869.394 538.566 889.22 556.414 911.478 569.182C914.518 570.829 917.559 572.888 920.843 573.849C921.451 574.124 922.546 574.81 923.154 575.085C928.992 578.243 935.317 580.714 941.641 582.087C942.858 581.812 943.952 582.224 944.925 583.185L945.898 583.597C949.061 584.421 952.101 585.244 955.142 585.931C956.115 585.931 957.939 586.205 958.791 586.205C961.467 586.205 964.142 586.48 966.697 587.166C976.427 589.089 986.644 588.265 996.252 585.931C997.59 585.107 999.171 584.695 1000.63 584.833C1006.23 584.146 1011.7 581.949 1016.81 579.204C1017.42 578.929 1018.51 578.243 1019.12 577.968C1035.78 569.868 1049.28 554.629 1058.16 536.919C1060.59 531.564 1063.27 526.073 1064 520.032C1064 518.247 1064.36 516.6 1064.97 515.09C1066.92 504.244 1059.98 493.535 1051.11 489.966C1046.97 489.829 1042.84 489.829 1038.7 490.24C1031.4 491.751 1026.17 499.027 1024.1 506.715C1019.73 522.503 1007.56 534.31 993.698 538.841C992.725 539.664 991.63 540.076 990.414 539.939L989.441 540.076C985.914 540.488 982.387 540.9 978.859 540.763C978.13 540.763 976.427 540.763 975.697 540.763C972.17 540.9 968.643 540.488 965.115 540.076C964.629 540.076 963.413 539.939 962.926 539.802C961.345 539.939 959.764 539.39 958.304 538.703L957.21 538.429C955.872 538.566 954.655 538.292 953.561 537.468C930.695 529.78 910.14 515.227 892.26 497.654C857.597 463.606 831.082 420.635 807.364 376.565C789.363 345.263 768.808 314.51 740.834 293.78C734.996 289.936 729.036 285.68 722.225 284.444C720.887 284.719 719.792 284.444 718.819 283.483C707.386 273.873 695.224 263.988 680.872 261.105C679.655 261.242 678.561 260.968 677.588 260.007C675.763 258.908 673.696 258.497 671.628 258.085C666.155 257.398 660.681 256.575 655.208 255.614C648.64 254.79 641.829 254.79 635.261 255.751C631.369 256.3 627.355 256.575 623.463 256.986C622.977 256.986 621.882 257.261 621.274 257.398C619.085 258.085 616.774 258.359 614.463 258.359C613.733 258.497 612.395 258.634 611.787 258.771C610.328 259.458 608.746 259.732 607.165 259.732C606.435 259.732 605.098 260.007 604.489 260.007C603.395 260.968 602.3 261.242 600.962 261.105C600.354 261.105 599.016 261.38 598.408 261.38C597.313 262.341 596.097 262.615 594.759 262.478L593.665 262.753C592.57 263.576 591.475 263.988 590.137 263.851C589.529 263.851 588.435 263.988 587.948 264.125C584.907 264.812 581.745 265.636 578.704 266.185C577.853 266.459 576.15 266.871 575.177 267.146C574.082 267.832 572.866 268.107 571.65 267.832L570.434 268.244C568.974 268.931 567.393 269.342 565.69 269.205C565.082 269.342 563.744 269.617 563.136 269.617C561.19 270.303 559.366 270.715 557.298 270.715C553.163 270.715 548.784 271.264 544.77 272.5C542.094 273.187 539.419 273.461 536.743 273.461C535.891 273.461 534.067 273.598 533.216 273.736C529.323 274.148 525.431 274.422 521.418 274.697C520.688 274.697 519.228 274.834 518.499 274.971C506.093 276.207 493.687 276.207 481.281 274.971C479.943 274.834 478.483 274.697 477.145 274.559C473.618 274.422 470.091 274.148 466.685 273.736C464.739 273.461 462.672 273.187 460.725 273.187C458.779 273.461 456.833 273.187 454.887 272.5C454.279 272.363 452.941 272.226 452.333 272.088C450.266 271.951 448.198 271.676 446.252 271.127L445.036 270.853C443.09 270.715 441.022 270.303 439.197 269.754C438.468 269.617 437.251 269.342 436.643 269.205C435.305 269.48 434.089 269.205 432.994 268.244C432.386 268.244 431.048 267.97 430.44 267.832C429.102 268.107 427.886 267.695 426.791 266.871L425.575 266.734C423.872 266.734 422.291 266.185 420.71 265.498L419.615 265.224C418.277 265.361 417.061 264.949 415.845 264.125L414.629 263.851C413.291 263.988 412.074 263.576 410.98 262.753L409.764 262.478C408.426 262.615 407.209 262.203 406.115 261.38L405.02 261.105C403.682 261.242 402.587 260.968 401.493 260.007C396.263 257.536 390.546 256.437 385.195 254.378C379.843 252.593 374.735 249.847 369.261 248.886C367.194 248.749 365.248 247.788 363.545 246.552C357.829 243.258 351.625 241.473 345.787 238.727C333.016 233.51 320.61 227.057 307.231 224.037C304.799 223.9 302.488 222.939 300.177 221.703L299.204 221.291C297.744 221.703 296.65 221.291 295.555 220.33C294.339 219.232 293.001 218.134 292.271 216.623C287.406 207.013 283.149 196.991 277.311 188.067C276.946 187.518 276.216 186.283 275.973 185.733C273.297 179.555 266.729 174.888 268.554 167.199C268.554 164.728 269.04 162.12 269.648 159.649L269.892 158.55C270.622 148.116 270.5 137.682 270.013 127.248L269.648 126.15C268.919 124.091 268.675 121.894 268.797 119.697C268.675 119.011 268.432 117.501 268.432 116.814C267.459 115.579 267.216 114.206 267.581 112.833L267.824 111.46ZM260.891 127.523C261.135 129.445 261.256 131.504 261.378 133.426C262.472 147.704 260.526 161.845 258.459 175.849C279.379 206.601 294.096 241.885 305.65 278.266C306.137 279.365 306.137 280.6 305.407 281.561C284 316.021 248.85 338.399 212.119 343.753C210.173 355.148 209.199 366.68 206.767 378.075C204.091 388.097 195.577 396.197 186.09 396.06C176.36 396.197 166.63 396.197 156.9 396.06C146.683 395.923 138.047 386.45 135.98 375.33C134.277 364.896 133.061 354.187 131.358 343.616C96.329 339.223 63.6111 318.766 40.2587 289.387C40.7451 284.444 42.9345 280.051 44.2724 275.383C52.7863 249.436 62.5165 223.762 74.6793 199.737C77.4767 194.52 80.0309 189.166 83.6797 184.635C83.6797 183.537 83.6797 182.576 83.6797 181.477C82.3418 164.042 83.0716 146.606 84.1663 129.17C96.6939 137.27 108.978 145.782 120.776 155.118C122.357 156.628 124.547 155.667 126.371 155.667C151.913 152.509 177.576 151.548 203.118 153.333C209.443 153.333 215.767 155.118 222.092 154.706C234.62 145.096 247.391 135.486 260.891 127.523ZM342.138 248.337C366.586 258.771 391.398 268.244 416.94 274.834C444.062 281.973 472.037 285.817 499.89 285.543C534.432 285.68 568.731 279.776 602.3 270.99C626.991 265.636 653.019 262.341 677.466 270.303C694.494 274.834 708.846 286.778 721.009 300.507C721.617 298.585 722.103 296.8 722.59 295.015C734.753 300.37 745.213 309.431 754.7 319.316C762.362 327.553 769.903 336.065 776.228 345.812C780.606 350.48 783.769 356.521 787.417 362.013C794.229 372.721 800.553 383.979 806.635 395.236C828.528 434.913 853.704 472.667 884.598 504.107C879.611 510.697 874.26 517.012 868.665 523.19C834.974 489.005 807.729 447.681 784.012 404.298C771.606 381.37 757.497 359.404 740.712 340.321C740.956 348.695 742.902 356.933 743.388 365.307C743.875 374.78 744.118 384.528 742.537 393.864C739.618 409.514 733.171 423.93 725.144 436.972C712.008 458.389 694.859 476.1 680.142 496.007C674.06 504.381 667.979 513.58 666.52 524.7C664.695 536.919 668.587 549 673.087 559.983C678.804 572.477 686.953 583.46 692.791 595.953C686.71 606.936 679.412 617.095 672.601 627.529C656.668 651.006 640.978 674.482 624.68 697.547C625.166 697.684 626.139 698.233 626.626 698.371C620.909 699.332 615.193 698.92 609.355 698.92C588.313 698.92 567.271 699.057 546.23 698.782L546.108 697.272H544.892C547.811 687.937 554.014 680.386 560.825 674.345C571.163 666.382 584.786 668.579 595.611 674.07C601.692 666.794 607.044 658.969 611.422 650.457C617.625 637.689 622.977 622.724 619.328 608.034C616.774 597.189 609.476 589.226 603.516 580.714C604.854 574.261 607.895 568.495 610.084 562.317C614.828 550.236 623.828 541.175 631.369 531.29C624.68 532.388 618.598 535.82 612.517 538.978C603.76 543.509 595.854 550.373 590.259 559.297C589.286 560.532 587.826 563.965 586.245 561.631C580.65 555.178 575.542 548.314 571.042 540.9C584.542 522.641 601.692 507.264 621.274 498.066C626.504 495.595 632.099 494.359 637.329 492.025C637.086 491.888 636.356 491.751 635.991 491.613C628.328 491.476 620.544 491.476 612.882 491.613C594.273 494.771 576.88 503.146 559.487 510.559C555.109 499.301 551.946 487.357 552.554 474.864C580.894 465.94 610.571 462.645 639.883 463.332C638.424 461.822 636.964 460.586 635.14 459.625C622.734 453.035 609.233 449.328 595.732 446.72C582.475 444.523 568.974 445.072 555.595 446.445C559.001 430.382 565.204 415.418 572.745 401.277C571.163 400.179 569.582 399.218 568.123 398.12C564.231 403.748 562.041 410.75 558.636 416.516C556.446 423.518 553.527 430.245 551.703 437.521C547.446 453.035 545.743 469.51 547.081 485.847C506.701 486.122 467.537 499.576 428.859 511.658C424.602 512.756 420.345 514.815 415.967 513.991C392.979 510.285 370.721 502.596 349.801 491.339C352.72 486.534 355.883 481.729 359.896 477.884C364.275 474.864 369.626 476.786 374.492 476.512C374.492 474.589 374.613 472.667 374.613 470.745C368.41 470.196 361.234 468.549 356.004 473.354C345.909 482.964 340.801 497.105 331.435 507.402C324.989 514.952 318.056 522.915 308.691 525.524C286.19 531.976 262.959 533.349 240.093 536.095C220.268 537.468 200.564 539.253 180.739 539.939C180.982 555.865 180.374 572.339 174.779 587.304C172.225 594.717 167.36 601.033 161.035 604.739C149.967 611.192 136.466 613.801 124.425 609.27C124.425 605.975 125.155 602.68 125.763 599.522C131.236 572.065 136.466 544.607 142.061 517.286C146.075 514.541 150.94 513.854 155.318 511.932C184.144 502.047 212.727 491.476 242.161 484.749C251.648 481.729 258.337 473.079 265.027 465.528C264.297 467.588 263.445 469.51 262.594 471.569C271.473 469.098 280.23 466.078 289.352 465.666C297.501 464.567 305.65 465.94 313.799 466.078C313.434 465.528 312.583 464.293 312.096 463.744C301.15 454.545 286.92 452.898 273.662 452.486C276.095 448.093 278.527 443.837 280.96 439.443C279.865 438.345 278.892 437.247 277.919 436.149C273.054 431.069 268.432 425.715 264.054 420.223C249.58 402.925 233.768 387.274 218.2 371.485C217.713 365.445 219.659 359.129 220.268 353.089C230.971 350.755 241.552 347.323 251.769 342.792C275.973 331.397 297.623 312.726 312.705 288.563C314.529 285.543 317.083 282.11 315.502 278.266C311.853 265.498 307.353 253.142 302.731 240.786C301.515 237.766 300.299 234.883 299.204 231.863C313.921 235.707 328.03 242.434 342.138 248.337ZM723.441 457.154C724.049 473.903 726.239 491.201 734.509 505.48C745.942 524.837 762.362 539.939 780.485 551.059C785.35 554.492 791.553 556.963 793.864 563.553C796.539 570.417 797.634 577.831 798.486 585.244C800.31 608.034 798.85 630.824 796.904 653.477C795.81 668.03 793.985 682.445 791.918 696.86C767.47 696.86 743.145 695.487 718.698 695.35C722.225 684.779 728.793 674.208 738.645 670.364C743.388 668.304 748.132 671.05 752.875 670.638C756.767 669.403 757.983 664.46 758.348 660.479C760.051 634.806 756.281 609.27 752.51 584.009C746.307 583.597 739.983 582.91 733.78 581.538C726.36 569.731 722.103 555.453 723.32 540.9C717.968 551.471 712.616 563.141 714.806 575.634C707.265 572.751 699.724 569.319 693.034 564.514C690.723 563.141 691.575 559.846 691.453 557.512C692.061 543.234 697.899 529.505 706.535 519.071C695.589 523.052 684.885 528.132 675.277 535.271C675.398 530.191 675.277 524.975 677.223 520.307C681.358 509.598 688.656 501.086 695.345 492.574C704.832 480.905 714.562 469.372 723.441 457.154ZM383.735 517.012C383.735 521.405 383.735 525.661 384.587 529.917C389.208 552.981 392.371 576.458 393.465 600.072C394.317 631.236 394.317 663.087 385.316 692.879C377.411 693.016 369.383 693.84 361.356 693.84H360.504C360.991 694.252 362.085 695.076 362.572 695.487C357.342 695.899 351.99 695.625 346.639 695.899C339.949 696.174 333.138 697.135 326.449 695.35C317.083 696.174 307.475 696.723 297.988 696.586C300.664 686.564 303.947 675.443 312.096 669.403C323.165 663.087 336.422 665.147 347.855 669.403C357.95 651.28 356.491 628.628 353.815 608.309C355.883 598.561 359.896 589.363 365.248 581.4C368.045 576.87 372.059 573.712 374.735 569.182C364.396 568.77 354.058 572.065 345.544 578.517C343.963 573.438 342.382 568.221 340.679 563.141C345.909 553.393 352.477 544.332 360.626 537.605C363.91 534.722 367.924 533.075 370.843 529.642C366.464 530.466 362.085 530.603 357.707 530.329C349.193 532.525 340.557 533.624 332.652 538.154C331.557 533.761 329.368 529.642 329.003 525.112C335.692 517.973 342.017 510.422 347.977 502.459C359.775 507.951 371.572 513.305 383.735 517.012ZM917.802 531.427C914.153 538.978 910.383 546.666 906.248 553.943C897.126 548.039 888.49 541.449 880.341 533.898C884.476 526.622 889.22 519.895 894.085 513.168C901.869 519.483 909.653 525.661 917.802 531.427ZM954.291 548.176C954.899 557.375 955.628 566.436 956.237 575.497C945.29 573.3 934.587 569.731 924.613 564.514C927.289 556.276 929.479 547.902 932.519 539.939C939.695 543.097 946.993 545.842 954.291 548.176ZM1022.77 564.102C1011.09 572.202 997.468 576.87 983.724 577.419C982.508 568.77 981.535 559.983 980.562 551.334C989.198 550.922 997.833 548.726 1005.86 544.881C1011.46 551.197 1017.29 557.512 1022.77 564.102ZM395.411 620.665C395.29 627.529 395.776 634.531 394.682 641.396C394.195 627.529 394.074 613.663 394.56 599.934C395.898 606.661 395.29 613.801 395.411 620.665Z" fill="#282828" stroke="#282828" stroke-width="0.09375"/>
<path opacity="0.51" d="M268.432 116.814C269.77 115.03 269.527 113.657 267.581 112.833C267.216 114.206 267.459 115.579 268.432 116.814Z" fill="#323232" stroke="#323232" stroke-width="0.09375"/>
<path opacity="0.62" d="M76.6255 112.97C74.071 114.206 74.6792 119.56 75.774 122.031C76.6255 119.148 76.9904 115.991 76.6255 112.97Z" fill="#2E2E2E" stroke="#2E2E2E" stroke-width="0.09375"/>
<path opacity="0.6" d="M269.648 126.15C271.23 124.64 271.108 119.972 268.797 119.697C268.675 121.894 268.919 124.091 269.648 126.15Z" fill="#2F2F2F" stroke="#2F2F2F" stroke-width="0.09375"/>
<path opacity="0.52" d="M75.2877 124.365C73.0984 129.857 74.4363 136.035 74.4363 141.938C75.166 136.035 75.2877 130.269 75.2877 124.365Z" fill="#303030" stroke="#303030" stroke-width="0.09375"/>
<path opacity="0.49" d="M271.23 142.899C270.865 137.682 272.324 131.916 270.013 127.248C270.5 137.682 270.622 148.116 269.892 158.55C272.324 153.882 270.986 148.116 271.23 142.899Z" fill="#353334" stroke="#353334" stroke-width="0.09375"/>
<path d="M260.891 127.523C247.391 135.486 234.62 145.096 222.092 154.706C215.767 155.118 209.443 153.333 203.118 153.333C177.576 151.549 151.913 152.51 126.371 155.667C124.547 155.667 122.357 156.628 120.776 155.118C108.978 145.782 96.6939 137.27 84.1663 129.17C83.0716 146.606 82.3418 164.042 83.6797 181.478C84.896 165.415 83.4365 149.077 86.2339 133.152C98.8832 140.428 110.803 149.215 122.844 157.864C125.398 159.649 128.074 161.571 131.236 161.296C139.872 160.884 148.507 159.237 157.143 160.472C153.008 159.237 148.751 158.276 144.615 157.177C163.711 156.079 182.928 155.118 201.902 158.001C208.591 159.099 215.403 160.884 222.214 160.198C225.619 158.825 228.295 156.216 231.336 154.157C241.066 146.743 251.404 140.565 261.378 133.426C261.256 131.504 261.135 129.445 260.891 127.523Z" fill="#FCFBFA" stroke="#FCFBFA" stroke-width="0.09375"/>
<path opacity="0.47" d="M104.356 129.582L103.262 128.758L102.289 129.308C102.775 129.582 103.87 130.406 104.356 130.818V129.582Z" fill="#2C2A2D" stroke="#2C2A2D" stroke-width="0.09375"/>
<path d="M261.378 133.426C251.404 140.565 241.066 146.743 231.336 154.157C228.295 156.216 225.619 158.825 222.214 160.198C215.403 160.884 208.591 159.099 201.902 158.001C191.685 158.138 182.198 162.806 174.171 169.533C168.698 165.964 163.224 162.12 157.143 160.472C148.507 159.237 139.872 160.884 131.236 161.296C128.074 161.571 125.398 159.649 122.844 157.864C110.803 149.215 98.8834 140.428 86.2341 133.152C83.4367 149.077 84.8962 165.415 83.6799 181.477C83.6799 182.576 83.6799 183.537 83.6799 184.635C83.9232 187.793 85.0178 191.362 83.0718 194.108C70.909 215.251 61.1788 238.041 52.6649 261.38C49.2593 270.853 45.6105 280.326 43.178 290.21C48.2863 289.936 53.273 289.387 58.1381 288.288C63.8546 256.025 71.7604 223.076 89.7613 196.442C85.626 208.386 83.4367 221.017 81.9772 233.647C80.5176 249.573 79.1797 265.636 79.1797 281.836C90.6127 278.129 101.924 274.148 112.992 269.068C116.641 267.42 120.411 265.773 124.304 264.675C130.871 244.905 139.385 224.861 153.616 210.583C161.643 202.208 173.563 199.462 183.901 203.169C192.537 206.464 199.226 214.015 204.943 221.84C213.456 234.059 219.66 248.063 224.89 262.341C237.174 273.187 252.256 279.502 267.824 280.6C268.919 271.951 267.337 263.302 266.729 254.79C264.54 233.51 261.621 212.093 254.445 192.186C272.689 218.271 281.203 250.534 289.23 281.973C294.582 281.699 299.934 281.698 305.407 281.561C306.137 280.6 306.137 279.365 305.65 278.266C294.096 241.885 279.379 206.601 258.459 175.849C260.526 161.845 262.472 147.704 261.378 133.426ZM244.472 175.437C241.309 174.338 238.025 173.103 234.741 172.691C215.524 170.22 196.185 175.986 179.279 186.145C177.576 187.106 175.509 188.617 173.441 187.518C161.521 182.713 149.602 177.771 137.561 173.103C126.979 169.121 115.668 168.847 104.6 169.671C118.344 163.767 133.669 160.884 148.386 163.767C157.751 166.238 166.508 170.906 175.265 175.711C181.833 171.455 188.766 167.474 196.307 165.552C212.605 160.884 230.728 164.316 244.472 175.437ZM223.308 201.247C227.322 202.757 230.363 207.013 231.214 211.544C232.795 219.095 228.052 227.195 221.362 228.43C213.578 230.078 206.037 221.566 207.375 212.917C207.618 204.267 216.376 198.501 223.308 201.247ZM128.439 201.247C137.804 203.993 139.872 219.918 131.844 225.822C125.398 231.725 114.817 227.332 112.992 218.271C110.195 208.112 119.438 197.54 128.439 201.247Z" fill="#F8AF40" stroke="#F8AF40" stroke-width="0.09375"/>
<path opacity="0.48" d="M114.087 136.309L112.992 135.623L112.019 136.172C112.505 136.447 113.6 137.27 114.087 137.682V136.309Z" fill="#2D2B2E" stroke="#2D2B2E" stroke-width="0.09375"/>
<path opacity="0.42" d="M199.713 142.762C192.902 140.565 185.726 141.801 178.793 141.526C171.009 141.801 163.103 140.565 155.44 142.625C170.157 142.625 184.996 142.487 199.713 142.762Z" fill="#333333" stroke="#333333" stroke-width="0.09375"/>
<path opacity="0.56" d="M215.646 144.135C211.753 141.664 207.01 143.311 202.753 143.037C207.01 143.86 211.267 144.272 215.646 144.135Z" fill="#2E2E2E" stroke="#2E2E2E" stroke-width="0.09375"/>
<path opacity="0.51" d="M149.967 143.311C145.71 143.448 140.845 141.389 137.196 144.272C141.453 144.135 145.71 143.86 149.967 143.311Z" fill="#313131" stroke="#313131" stroke-width="0.09375"/>
<path opacity="0.54" d="M135.372 144.547C131.236 144.272 126.979 144.272 122.844 144.272C126.858 146.469 131.236 145.096 135.372 144.547Z" fill="#2E2E2E" stroke="#2E2E2E" stroke-width="0.09375"/>
<path d="M201.902 158.001C182.928 155.118 163.711 156.079 144.615 157.177C148.751 158.276 153.008 159.237 157.143 160.472C163.224 162.12 168.698 165.964 174.171 169.533C182.198 162.806 191.685 158.138 201.902 158.001Z" fill="#272827" stroke="#272827" stroke-width="0.09375"/>
<path opacity="0.58" d="M269.648 159.648C269.04 162.12 268.554 164.728 268.554 167.199C271.23 166.925 271.108 161.571 269.648 159.648Z" fill="#2E2E32" stroke="#2E2E32" stroke-width="0.09375"/>
<path d="M244.472 175.437C230.728 164.316 212.605 160.884 196.307 165.552C188.766 167.474 181.833 171.455 175.265 175.711C166.508 170.906 157.751 166.238 148.386 163.767C133.669 160.884 118.344 163.767 104.6 169.671C115.668 168.847 126.979 169.121 137.561 173.103C149.602 177.771 161.522 182.713 173.441 187.518C175.509 188.617 177.576 187.106 179.279 186.145C196.185 175.986 215.524 170.22 234.741 172.691C238.025 173.103 241.309 174.338 244.472 175.437Z" fill="#282728" stroke="#282728" stroke-width="0.09375"/>
<path opacity="0.49" d="M277.068 185.733H275.973C276.216 186.283 276.946 187.518 277.311 188.067L277.676 186.969L277.068 185.733Z" fill="#2D2D2D" stroke="#2D2D2D" stroke-width="0.09375"/>
<path d="M83.0716 194.108C85.0177 191.362 83.923 187.793 83.6798 184.635C80.0309 189.166 77.4768 194.52 74.6794 199.737C62.5166 223.762 52.7864 249.436 44.2725 275.383C42.9345 280.051 40.7452 284.444 40.2587 289.387C63.6112 318.766 96.3291 339.223 131.358 343.616C133.061 354.187 134.277 364.896 135.98 375.33C138.047 386.45 146.683 395.923 156.9 396.06C166.63 396.197 176.36 396.197 186.09 396.06C195.577 396.197 204.091 388.097 206.767 378.075C209.2 366.68 210.173 355.148 212.119 343.753C248.85 338.399 284.001 316.021 305.407 281.561C299.934 281.698 294.582 281.698 289.231 281.973C289.839 286.366 286.19 288.975 283.879 291.721C268.919 307.646 251.526 322.336 230.728 326.317C239.606 317.668 249.458 310.117 257.851 300.782C262.716 295.153 265.513 287.876 267.824 280.6C252.256 279.502 237.174 273.187 224.89 262.341C230.12 277.717 232.917 295.702 226.957 311.216C222.214 323.434 210.781 329.75 199.834 332.633C199.226 344.714 199.104 357.07 196.429 368.74C195.456 374.231 190.347 376.565 186.212 377.801C176.725 380.272 166.873 380.272 157.386 378.213C154.467 377.252 150.453 376.291 149.724 372.309C146.561 359.953 146.805 346.911 147.048 334.143C136.345 332.084 125.276 324.945 121.992 312.451C118.1 296.8 119.925 279.914 124.303 264.675C120.411 265.773 116.641 267.42 112.992 269.068C101.924 274.148 90.6125 278.129 79.1795 281.836C79.3011 290.622 84.0446 298.31 89.153 304.488C97.9102 314.922 109.222 321.924 119.438 330.573C97.9102 326.592 78.2066 314.236 62.5166 297.487C60.3273 295.016 57.8947 292.132 58.138 288.288C53.2728 289.387 48.2861 289.936 43.1778 290.21C45.6103 280.326 49.2591 270.853 52.6647 261.38C61.1786 238.041 70.9089 215.251 83.0716 194.108Z" fill="#FDFDFD" stroke="#FDFDFD" stroke-width="0.09375"/>
<path d="M289.23 281.973C281.203 250.534 272.689 218.271 254.445 192.186C261.621 212.093 264.54 233.51 266.729 254.79C267.338 263.302 268.919 271.951 267.824 280.6C265.513 287.877 262.716 295.153 257.851 300.782C249.458 310.117 239.606 317.668 230.728 326.317C251.526 322.336 268.919 307.646 283.879 291.721C286.19 288.975 289.839 286.366 289.23 281.973Z" fill="#282828" stroke="#282828" stroke-width="0.09375"/>
<path d="M89.7613 196.442C71.7604 223.076 63.8546 256.025 58.1381 288.288C57.8948 292.132 60.3274 295.016 62.5167 297.487C78.2067 314.236 97.9103 326.592 119.438 330.573C109.222 321.924 97.9103 314.922 89.1531 304.488C84.0448 298.31 79.3013 290.622 79.1796 281.836C79.1796 265.636 80.5176 249.573 81.9771 233.647C83.4367 221.017 85.6259 208.386 89.7613 196.442Z" fill="#282828" stroke="#282828" stroke-width="0.09375"/>
<path d="M223.308 201.247C216.375 198.501 207.618 204.267 207.375 212.917C206.037 221.566 213.578 230.078 221.362 228.43C228.052 227.195 232.795 219.095 231.214 211.544C230.363 207.013 227.322 202.757 223.308 201.247Z" fill="#282828" stroke="#282828" stroke-width="0.09375"/>
<path d="M128.439 201.247C119.438 197.54 110.195 208.112 112.992 218.271C114.817 227.332 125.398 231.725 131.844 225.822C139.872 219.918 137.804 203.993 128.439 201.247Z" fill="#282828" stroke="#282828" stroke-width="0.09375"/>
<path d="M183.901 203.169C173.563 199.462 161.643 202.208 153.616 210.583C139.385 224.861 130.871 244.905 124.303 264.675C119.925 279.914 118.1 296.8 121.992 312.451C125.276 324.944 136.344 332.084 147.048 334.143C146.804 346.911 146.561 359.953 149.723 372.309C150.453 376.291 154.467 377.252 157.386 378.213C166.873 380.272 176.725 380.272 186.212 377.801C190.347 376.565 195.456 374.231 196.429 368.74C199.104 357.07 199.226 344.714 199.834 332.633C210.781 329.75 222.214 323.434 226.957 311.216C232.917 295.702 230.12 277.717 224.89 262.341C219.66 248.063 213.457 234.059 204.943 221.84C199.226 214.015 192.537 206.464 183.901 203.169ZM196.915 222.664C205.186 233.51 211.389 246.141 216.497 259.183C220.998 270.029 223.917 281.836 223.552 293.917C223.673 303.39 220.146 313.412 212.848 318.629C202.024 326.317 188.888 327.141 176.482 327.965C176.238 322.611 176.238 317.256 176.238 311.902C174.049 311.902 171.981 311.765 169.792 311.765C169.67 317.256 169.67 322.611 169.792 328.102C158.724 328.377 146.804 328.377 136.831 322.061C128.56 316.707 126.371 305.175 126.614 295.29C126.249 282.522 129.047 269.892 133.669 258.359C138.899 244.768 145.223 231.588 153.98 220.605C159.21 214.427 166.022 208.798 173.927 209.347C183.171 208.386 191.077 215.388 196.915 222.664Z" fill="#282828" stroke="#282828" stroke-width="0.09375"/>
<path d="M196.915 222.664C191.077 215.388 183.171 208.386 173.928 209.347C166.022 208.798 159.211 214.427 153.981 220.605C145.223 231.588 138.899 244.768 133.669 258.359C136.345 259.458 139.02 260.693 141.696 261.654C146.805 260.968 150.818 265.086 155.319 266.871C167.481 271.951 180.982 270.715 193.145 266.185C198.618 264.263 203.361 259.595 209.321 259.595C211.754 259.458 214.065 259.32 216.497 259.183C211.389 246.141 205.186 233.51 196.915 222.664Z" fill="#F8AF40" stroke="#F8AF40" stroke-width="0.09375"/>
<path opacity="0.42" d="M299.204 221.291C298.353 219.232 297.258 218.82 295.555 220.33C296.65 221.291 297.744 221.703 299.204 221.291Z" fill="#303030" stroke="#303030" stroke-width="0.09375"/>
<path opacity="0.53" d="M307.231 224.037C306.988 221.017 302.245 220.056 300.177 221.703C302.488 222.939 304.799 223.9 307.231 224.037Z" fill="#2C2C2C" stroke="#2C2C2C" stroke-width="0.09375"/>
<path d="M342.139 248.337C328.03 242.434 313.921 235.707 299.204 231.863C300.299 234.883 301.515 237.766 302.731 240.786C312.218 244.081 321.827 246.964 331.192 250.946C341.044 254.79 350.774 259.595 360.869 262.615C370.235 265.773 378.992 270.853 388.479 273.461C399.304 276.481 409.764 281.149 420.832 283.071C432.873 284.17 444.427 288.014 456.347 289.936C466.685 292.27 477.145 292.682 487.605 293.231C497.335 293.368 507.066 293.368 516.796 293.231C529.81 293.368 542.581 290.622 555.473 289.799C564.231 288.563 572.866 287.327 581.502 284.993C591.84 282.248 602.3 279.914 612.76 277.992C624.558 275.795 636.478 274.559 648.397 274.148C658.614 274.01 668.952 275.795 678.804 278.404C688.291 280.6 697.656 283.483 705.927 289.249C711.4 292.819 716.144 297.761 721.495 301.743C737.307 306.136 750.564 317.668 762.119 330.161C766.862 335.378 771.119 341.007 776.228 345.812C769.903 336.065 762.362 327.553 754.7 319.316C745.213 309.431 734.753 300.37 722.59 295.015C722.103 296.8 721.617 298.585 721.009 300.507C708.846 286.778 694.494 274.834 677.466 270.303C653.019 262.341 626.991 265.636 602.3 270.99C568.731 279.776 534.432 285.68 499.89 285.543C472.037 285.817 444.062 281.973 416.94 274.834C391.398 268.244 366.586 258.771 342.139 248.337Z" fill="#FCFCFB" stroke="#FCFCFB" stroke-width="0.09375"/>
<path d="M331.192 250.946C321.827 246.964 312.218 244.081 302.731 240.786C307.353 253.142 311.853 265.498 315.502 278.266C317.083 282.11 314.529 285.543 312.705 288.563C297.623 312.726 275.973 331.397 251.769 342.792C264.419 360.64 276.46 379.174 285.947 399.492C291.785 412.123 285.217 426.264 277.919 436.149C278.892 437.247 279.865 438.345 280.96 439.444C278.527 443.837 276.095 448.093 273.662 452.486C286.92 452.898 301.15 454.545 312.097 463.744C312.583 464.293 313.435 465.528 313.799 466.078C305.65 465.94 297.501 464.567 289.352 465.666C280.23 466.078 271.473 469.098 262.594 471.569C261.621 474.04 260.526 476.512 259.189 478.846C268.554 480.218 277.798 484.2 284.73 491.476C291.542 498.478 297.015 507.127 300.42 516.737C288.014 510.285 275.852 502.871 262.594 498.478C255.783 495.732 248.364 494.496 241.674 491.202C238.634 492.437 235.35 493.124 232.066 494.085C238.998 501.773 243.499 511.52 246.904 521.68C237.782 516.051 229.025 509.186 219.295 505.068C216.132 503.832 212.97 502.597 209.808 501.224C203.118 502.459 196.794 505.342 190.347 507.402C177.698 511.932 164.927 516.188 152.278 520.856C149.724 521.405 148.994 524.7 148.143 527.034C142.061 548.176 135.98 569.319 130.02 590.461C128.196 596.777 127.466 603.504 124.425 609.27C136.466 613.801 149.967 611.192 161.035 604.74C167.36 601.033 172.225 594.717 174.779 587.304C180.374 572.339 180.982 555.865 180.739 539.939C200.564 539.253 220.268 537.468 240.093 536.095C262.959 533.349 286.19 531.976 308.691 525.524C318.056 522.915 324.989 514.953 331.435 507.402C340.801 497.105 345.909 482.964 356.004 473.354C361.234 468.549 368.41 470.196 374.613 470.745C374.613 472.667 374.492 474.59 374.492 476.512C403.804 476.1 432.508 468.412 460.604 459.213C486.146 450.289 511.444 440.267 535.891 427.911C543.554 424.479 550.852 419.811 558.636 416.516C562.041 410.75 564.231 403.748 568.123 398.12C569.582 399.218 571.163 400.179 572.745 401.277C565.204 415.418 559.001 430.383 555.595 446.445C568.974 445.072 582.475 444.523 595.732 446.72C609.233 449.328 622.734 453.035 635.14 459.625C636.964 460.586 638.424 461.822 639.883 463.332C610.571 462.645 580.894 465.94 552.554 474.864C551.946 487.357 555.109 499.302 559.487 510.559C576.88 503.146 594.273 494.771 612.882 491.613C620.423 489.417 628.45 489.417 635.991 491.613C636.356 491.751 637.086 491.888 637.329 492.025C632.099 494.359 626.504 495.595 621.274 498.066C601.692 507.264 584.543 522.641 571.042 540.9C575.542 548.314 580.65 555.178 586.245 561.631C587.826 563.965 589.286 560.532 590.259 559.297C595.854 550.373 603.76 543.509 612.517 538.978C618.598 535.82 624.68 532.388 631.369 531.29C623.828 541.175 614.828 550.236 610.084 562.317C607.895 568.495 604.854 574.261 603.516 580.714C609.476 589.226 616.774 597.189 619.328 608.034C622.977 622.724 617.625 637.689 611.422 650.457C607.044 658.969 601.692 666.794 595.611 674.07C584.786 668.579 571.163 666.382 560.825 674.345C554.014 680.386 547.811 687.937 544.892 697.272H546.108C572.38 697.41 598.53 696.861 624.68 697.547C640.978 674.482 656.668 651.006 672.601 627.53C679.412 617.096 686.71 606.936 692.791 595.953C686.953 583.46 678.804 572.477 673.087 559.983C668.587 549 664.695 536.919 666.52 524.7C667.979 513.58 674.06 504.381 680.142 496.007C694.859 476.1 712.008 458.389 725.144 436.972C733.171 423.93 739.618 409.515 742.537 393.864C744.118 384.528 743.875 374.78 743.388 365.308C742.902 356.933 740.956 348.696 740.712 340.321C757.497 359.404 771.606 381.37 784.012 404.298C807.729 447.681 834.974 489.005 868.665 523.19C874.26 517.012 879.611 510.697 884.598 504.107C853.704 472.668 828.528 434.913 806.635 395.236C800.553 383.979 794.229 372.721 787.417 362.013C783.769 356.521 780.606 350.48 776.228 345.812C771.119 341.007 766.862 335.378 762.119 330.162C750.564 317.668 737.307 306.136 721.495 301.743C721.982 326.592 715.292 350.618 708.116 373.957C704.467 385.352 700.819 396.884 696.318 408.004C697.17 380.135 694.98 351.99 689.386 324.807C686.588 309.156 682.574 293.78 678.804 278.404C668.952 275.795 658.614 274.01 648.397 274.148C657.276 317.943 659.952 364.209 649.492 407.867C646.937 418.438 643.897 428.872 639.032 438.345C637.451 420.498 636.599 402.376 634.531 384.665C630.639 348.284 622.734 312.726 612.76 277.992C602.3 279.914 591.84 282.248 581.502 284.993C584.299 289.249 585.272 294.329 586.245 299.271C591.475 324.67 589.894 351.029 586.853 376.565C581.745 356.384 576.637 335.928 568.001 317.256C564.109 307.921 559.366 299.134 555.474 289.799C542.581 290.622 529.81 293.368 516.796 293.231C526.404 331.397 525.431 372.172 518.499 410.75C511.566 378.35 506.458 345.263 495.268 314.373C492.714 307.234 489.43 300.507 487.605 293.231C477.145 292.682 466.685 292.27 456.347 289.936C458.293 304.9 457.928 320.002 457.807 335.104C457.442 363.248 450.995 390.706 444.063 417.752C443.454 420.223 442.36 422.557 441.387 424.754C438.711 393.452 435.914 362.15 431.778 330.985C429.224 314.785 426.305 298.31 420.832 283.071C409.764 281.149 399.304 276.482 388.479 273.461C389.209 276.07 389.817 278.815 389.817 281.561C390.425 306.822 388.722 332.633 381.668 356.933C376.802 373.957 371.329 390.981 363.667 406.769C363.91 376.016 364.761 345.263 364.518 314.511C364.64 297.075 363.059 279.776 360.869 262.615C350.774 259.595 341.044 254.79 331.192 250.946ZM588.799 444.386C580.65 444.523 572.137 445.759 563.987 443.974C572.258 443.288 580.65 442.739 588.799 444.386Z" fill="#F8AF40" stroke="#F8AF40" stroke-width="0.09375"/>
<path opacity="0.38" d="M45.1235 244.63L44.0292 244.905L43.5427 246.278L44.1507 247.239C44.3939 246.69 44.8803 245.317 45.1235 244.63Z" fill="#313130" stroke="#313130" stroke-width="0.09375"/>
<path opacity="0.55" d="M369.262 248.886C369.626 246.141 365.126 244.905 363.545 246.552C365.248 247.788 367.194 248.749 369.262 248.886Z" fill="#2C2C2C" stroke="#2C2C2C" stroke-width="0.09375"/>
<path d="M141.696 261.654C139.021 260.693 136.345 259.458 133.669 258.359C129.047 269.892 126.25 282.522 126.615 295.29C126.371 305.175 128.561 316.707 136.831 322.061C146.805 328.377 158.724 328.377 169.792 328.102C169.671 322.611 169.671 317.256 169.792 311.765C171.982 311.765 174.049 311.902 176.239 311.902C176.239 317.256 176.239 322.611 176.482 327.965C188.888 327.141 202.024 326.317 212.849 318.629C220.146 313.412 223.673 303.39 223.552 293.917C223.917 281.836 220.998 270.029 216.497 259.183C214.065 259.32 211.754 259.458 209.321 259.595C202.875 272.5 193.631 283.209 186.091 295.29C183.536 299.546 180.009 303.665 175.144 303.527C170.522 304.077 166.63 300.644 164.198 296.663C156.9 284.856 148.508 273.873 141.696 261.654Z" fill="#FEFEFE" stroke="#FEFEFE" stroke-width="0.09375"/>
<path opacity="0.47" d="M405.02 261.105C404.412 258.771 403.196 258.497 401.493 260.007C402.588 260.968 403.682 261.242 405.02 261.105Z" fill="#303030" stroke="#303030" stroke-width="0.09375"/>
<path d="M209.321 259.595C203.361 259.595 198.618 264.263 193.145 266.185C180.982 270.715 167.481 271.951 155.319 266.871C150.818 265.087 146.805 260.968 141.696 261.654C148.507 273.873 156.9 284.856 164.197 296.663C166.63 300.644 170.522 304.077 175.144 303.527C180.009 303.665 183.536 299.546 186.09 295.29C193.631 283.209 202.875 272.5 209.321 259.595Z" fill="#282828" stroke="#282828" stroke-width="0.09375"/>
<path opacity="0.45" d="M409.764 262.478C409.156 260.281 407.939 259.869 406.115 261.38C407.209 262.203 408.426 262.615 409.764 262.478Z" fill="#313130" stroke="#313130" stroke-width="0.09375"/>
<path d="M388.479 273.461C378.992 270.853 370.235 265.773 360.869 262.615C363.059 279.776 364.64 297.075 364.518 314.511C364.761 345.263 363.91 376.016 363.667 406.769C371.329 390.981 376.802 373.957 381.668 356.933C388.722 332.633 390.425 306.822 389.817 281.561C389.817 278.815 389.209 276.07 388.479 273.461ZM365.613 297.899C366.829 314.648 365.856 331.672 366.099 348.558H365.126C365.734 331.672 364.64 314.785 365.613 297.899Z" fill="#282828" stroke="#282828" stroke-width="0.09375"/>
<path opacity="0.39" d="M30.6504 288.975C28.5828 287.739 27.853 292.682 30.0423 292.132C30.2855 291.309 30.5288 289.798 30.6504 288.975Z" fill="#313131" stroke="#313131" stroke-width="0.09375"/>
<path d="M365.613 297.899C364.64 314.785 365.734 331.672 365.126 348.558H366.099C365.856 331.672 366.829 314.648 365.613 297.899Z" fill="#362409" stroke="#362409" stroke-width="0.09375"/>
<path d="M285.946 399.492C276.46 379.174 264.418 360.64 251.769 342.792C241.552 347.323 230.971 350.755 220.268 353.089C219.659 359.13 217.713 365.445 218.2 371.486C233.768 387.274 249.58 402.925 264.054 420.223C268.432 425.715 273.054 431.069 277.919 436.149C285.217 426.264 291.785 412.123 285.946 399.492Z" fill="#FEFEFE" stroke="#FEFEFE" stroke-width="0.09375"/>
<path opacity="0.47" d="M116.641 351.029C115.303 350.343 113.722 349.931 112.262 349.931C111.897 352.402 115.789 353.089 116.641 351.029Z" fill="#2F2F2F" stroke="#2F2F2F" stroke-width="0.09375"/>
<path opacity="0.45" d="M123.452 352.265C121.506 351.99 119.56 351.853 117.614 351.441C119.195 352.265 120.776 352.951 122.357 353.638C122.966 354.874 123.695 356.109 124.303 357.482C124.06 355.697 123.695 354.05 123.452 352.265Z" fill="#2E2E2E" stroke="#2E2E2E" stroke-width="0.09375"/>
<path opacity="0.55" d="M125.398 363.797C125.398 362.013 125.155 360.228 124.547 358.58C122.844 359.541 123.209 363.935 125.398 363.797Z" fill="#313131" stroke="#313131" stroke-width="0.09375"/>
<path opacity="0.49" d="M126.614 373.133C126.614 370.936 126.249 368.877 125.763 366.818C124.182 368.191 124.182 373.133 126.614 373.133Z" fill="#2F2F2F" stroke="#2F2F2F" stroke-width="0.09375"/>
<path opacity="0.47" d="M130.263 387.137C129.898 386.45 129.412 385.214 129.169 384.528L128.56 385.626L129.047 386.999L130.263 387.137Z" fill="#2F2F2F" stroke="#2F2F2F" stroke-width="0.09375"/>
<path opacity="0.6" d="M193.145 404.984C191.199 404.984 189.374 405.259 187.55 405.945C188.766 407.867 193.145 407.73 193.145 404.984Z" fill="#2F2F2F" stroke="#2F2F2F" stroke-width="0.09375"/>
<path opacity="0.5" d="M154.345 405.945C152.886 405.259 151.426 404.847 149.845 404.984C149.602 407.455 153.494 407.867 154.345 405.945Z" fill="#313131" stroke="#313131" stroke-width="0.09375"/>
<path d="M558.636 416.516C550.851 419.811 543.554 424.479 535.891 427.911C511.444 440.267 486.146 450.289 460.604 459.213C432.508 468.412 403.804 476.1 374.491 476.512C369.626 476.786 364.275 474.864 359.896 477.885C355.882 481.729 352.72 486.534 349.801 491.339C370.721 502.597 392.979 510.285 415.966 513.991C420.345 514.815 424.602 512.756 428.859 511.658C467.536 499.576 506.701 486.122 547.081 485.847C545.743 469.51 547.446 453.035 551.703 437.522C553.527 430.245 556.446 423.518 558.636 416.516Z" fill="white" stroke="white" stroke-width="0.09375"/>
<path d="M265.027 465.528C258.337 473.079 251.648 481.729 242.161 484.749C212.727 491.476 184.144 502.047 155.319 511.932C150.94 513.854 146.075 514.541 142.061 517.286C136.466 544.607 131.236 572.065 125.763 599.523C125.155 602.68 124.425 605.975 124.425 609.27C127.466 603.504 128.196 596.777 130.02 590.462C135.98 569.319 142.061 548.176 148.142 527.034C148.994 524.7 149.724 521.405 152.278 520.856C164.927 516.188 177.698 511.932 190.347 507.402C196.794 505.342 203.118 502.459 209.808 501.224C217.349 499.302 224.525 496.144 232.066 494.085C235.349 493.124 238.633 492.437 241.674 491.202C247.877 487.769 254.688 484.886 259.188 478.846C260.526 476.512 261.621 474.04 262.594 471.569C263.446 469.51 264.297 467.588 265.027 465.528Z" fill="#FCFCFA" stroke="#FCFCFA" stroke-width="0.09375"/>
<path opacity="0.45" d="M237.052 475.688C236.079 473.766 232.43 474.315 232.43 476.649C234.012 476.786 235.593 476.512 237.052 475.688Z" fill="#303030" stroke="#303030" stroke-width="0.09375"/>
<path opacity="0.49" d="M231.214 476.924C229.511 475.413 228.295 475.688 227.444 478.022C228.903 478.159 230.12 477.747 231.214 476.924Z" fill="#323232" stroke="#323232" stroke-width="0.09375"/>
<path opacity="0.55" d="M226.349 478.296C224.646 476.786 223.43 477.061 222.7 479.395C224.038 479.532 225.254 479.12 226.349 478.296Z" fill="#313131" stroke="#313131" stroke-width="0.09375"/>
<path d="M284.73 491.476C277.798 484.2 268.554 480.218 259.189 478.846C254.688 484.886 247.877 487.769 241.674 491.202C248.364 494.496 255.783 495.732 262.594 498.478C275.852 502.871 288.014 510.285 300.42 516.737C297.015 507.127 291.541 498.478 284.73 491.476Z" fill="#282827" stroke="#282827" stroke-width="0.09375"/>
<path opacity="0.42" d="M220.146 479.669L219.295 478.983C218.808 479.395 218.078 480.218 217.592 480.63C218.2 480.356 219.538 479.944 220.146 479.669Z" fill="#333336" stroke="#333336" stroke-width="0.09375"/>
<path opacity="0.49" d="M216.497 481.042C214.794 479.532 213.578 479.807 212.97 482.141C214.308 482.278 215.524 481.866 216.497 481.042Z" fill="#313130" stroke="#313130" stroke-width="0.09375"/>
<path opacity="0.42" d="M211.754 482.278C209.929 480.905 208.835 481.317 208.227 483.651C209.565 483.651 210.781 483.239 211.754 482.278Z" fill="#2E2E2F" stroke="#2E2E2F" stroke-width="0.09375"/>
<path opacity="0.57" d="M182.32 492.163C180.495 490.378 175.752 491.614 175.63 494.496C177.941 494.359 180.252 493.535 182.32 492.163Z" fill="#2D2D2D" stroke="#2D2D2D" stroke-width="0.09375"/>
<path d="M232.066 494.085C224.525 496.144 217.349 499.302 209.808 501.224C212.97 502.597 216.132 503.832 219.295 505.068C229.025 509.186 237.782 516.051 246.904 521.68C243.499 511.52 238.998 501.773 232.066 494.085Z" fill="#282728" stroke="#282728" stroke-width="0.09375"/>
<path opacity="0.6" d="M161.887 499.302C160.305 497.517 155.805 498.615 156.048 501.361C158.238 501.361 160.184 500.4 161.887 499.302Z" fill="#2D2D2D" stroke="#2D2D2D" stroke-width="0.09375"/>
<path d="M383.735 517.012C371.573 513.305 359.775 507.951 347.977 502.459C342.017 510.422 335.692 517.973 329.003 525.112C329.368 529.642 331.557 533.761 332.652 538.154C340.558 533.624 349.193 532.525 357.707 530.329C362.086 528.407 366.951 528.269 371.573 528.819L370.843 529.642C367.924 533.075 363.91 534.722 360.626 537.605C352.477 544.332 345.909 553.393 340.679 563.141C342.382 568.221 343.963 573.438 345.544 578.517C354.058 572.065 364.397 568.77 374.735 569.182C372.059 573.712 368.045 576.87 365.248 581.4C359.896 589.363 355.883 598.561 353.815 608.309C356.491 628.628 357.95 651.28 347.855 669.403C336.422 665.147 323.165 663.087 312.097 669.403C303.948 675.443 300.664 686.564 297.988 696.586C307.475 696.723 317.083 696.174 326.449 695.35L327.422 695.213C338.612 693.154 350.044 693.703 361.356 693.84C369.383 693.84 377.411 693.016 385.317 692.879C394.317 663.087 394.317 631.236 393.466 600.072C392.371 576.458 389.209 552.981 384.587 529.917C383.735 525.661 383.735 521.405 383.735 517.012Z" fill="#F8AF40" stroke="#F8AF40" stroke-width="0.09375"/>
<path opacity="0.51" d="M143.399 505.617C141.696 504.107 140.602 504.519 140.115 506.99C141.453 506.99 142.548 506.578 143.399 505.617Z" fill="#2E2E31" stroke="#2E2E31" stroke-width="0.09375"/>
<path opacity="0.58" d="M133.79 511.932C131.966 515.09 131.966 518.797 131.723 522.366C132.574 518.934 133.304 515.502 133.79 511.932Z" fill="#2D2D2D" stroke="#2D2D2D" stroke-width="0.09375"/>
<path opacity="0.38" d="M400.155 521.268C399.182 520.307 398.087 519.895 396.749 520.17C397.357 522.366 398.452 522.778 400.155 521.268Z" fill="#2F2F2F" stroke="#2F2F2F" stroke-width="0.09375"/>
<path opacity="0.45" d="M407.453 522.641C405.993 521.954 404.412 521.543 402.831 521.68C402.709 524.151 406.48 524.563 407.453 522.641Z" fill="#313131" stroke="#313131" stroke-width="0.09375"/>
<path opacity="0.29" d="M393.587 527.309C395.047 525.524 394.682 524.151 392.736 523.464C392.493 524.837 392.736 526.21 393.587 527.309Z" fill="#2A2A2A" stroke="#2A2A2A" stroke-width="0.09375"/>
<path opacity="0.52" d="M131.479 524.837C129.412 525.524 129.047 526.897 130.506 528.819C131.236 527.583 131.601 526.21 131.479 524.837Z" fill="#323232" stroke="#323232" stroke-width="0.09375"/>
<path d="M371.572 528.819C366.951 528.269 362.085 528.407 357.707 530.329C362.085 530.603 366.464 530.466 370.843 529.642L371.572 528.819Z" fill="#D4A76D" stroke="#D4A76D" stroke-width="0.09375"/>
<path opacity="0.37" d="M394.925 534.173C396.263 532.251 396.02 531.015 393.952 530.192C393.83 531.702 394.074 533.075 394.925 534.173Z" fill="#2F2F2F" stroke="#2F2F2F" stroke-width="0.09375"/>
<path opacity="0.44" d="M130.263 530.054C128.317 530.878 127.952 532.251 129.29 534.173C130.142 532.937 130.385 531.565 130.263 530.054Z" fill="#323232" stroke="#323232" stroke-width="0.09375"/>
<path opacity="0.42" d="M320.975 532.663C320.732 532.251 320.246 531.29 320.002 530.878C319.759 531.29 319.151 532.114 318.908 532.526C319.394 532.663 320.489 532.663 320.975 532.663Z" fill="#373734" stroke="#373734" stroke-width="0.09375"/>
<path opacity="0.48" d="M396.141 542.548C397.723 541.312 397.358 537.056 395.168 537.193C395.168 538.978 395.533 540.763 396.141 542.548Z" fill="#303030" stroke="#303030" stroke-width="0.09375"/>
<path opacity="0.54" d="M305.042 536.781C303.461 536.644 302.001 537.056 300.663 537.742C301.515 539.802 305.285 539.253 305.042 536.781Z" fill="#2E2E31" stroke="#2E2E31" stroke-width="0.09375"/>
<path opacity="0.52" d="M128.925 537.056C126.979 537.88 126.736 539.253 128.074 541.175C128.804 539.939 129.169 538.566 128.925 537.056Z" fill="#323232" stroke="#323232" stroke-width="0.09375"/>
<path opacity="0.45" d="M299.691 538.154C295.312 538.978 290.933 539.939 286.555 540.763C290.933 540.626 295.799 541.037 299.691 538.154Z" fill="#2B2C2B" stroke="#2B2C2B" stroke-width="0.09375"/>
<path opacity="0.46" d="M284.244 540.9C281.933 540.9 279.622 541.175 277.433 541.861C279.136 543.646 283.879 543.92 284.244 540.9Z" fill="#302F31" stroke="#302F31" stroke-width="0.09375"/>
<path opacity="0.56" d="M273.419 542.41C271.108 542.273 268.675 542.548 266.365 543.234C268.067 544.882 272.811 545.294 273.419 542.41Z" fill="#323331" stroke="#323331" stroke-width="0.09375"/>
<path opacity="0.44" d="M127.831 542.41C125.884 543.234 125.52 544.607 126.858 546.529C127.709 545.293 127.952 543.921 127.831 542.41Z" fill="#303030" stroke="#303030" stroke-width="0.09375"/>
<path opacity="0.35" d="M397.236 547.765C398.695 545.98 398.331 544.607 396.385 543.783C396.141 545.294 396.506 546.666 397.236 547.765Z" fill="#2F2F2F" stroke="#2F2F2F" stroke-width="0.09375"/>
<path opacity="0.45" d="M263.689 543.646C261.013 543.646 258.337 543.92 255.661 544.607C257.729 546.254 262.716 546.804 263.689 543.646Z" fill="#313131" stroke="#313131" stroke-width="0.09375"/>
<path opacity="0.42" d="M252.134 545.156C248.607 545.431 245.08 545.705 241.674 546.117C245.08 546.392 248.85 547.216 252.134 545.156Z" fill="#2F2F2F" stroke="#2F2F2F" stroke-width="0.09375"/>
<path opacity="0.48" d="M236.201 546.667C231.944 546.667 227.687 546.941 223.43 547.49C227.687 547.765 232.309 548.863 236.201 546.667Z" fill="#303030" stroke="#303030" stroke-width="0.09375"/>
<path opacity="0.53" d="M217.957 548.176C212.484 548.039 207.01 548.176 201.659 549C207.01 548.725 212.849 550.648 217.957 548.176Z" fill="#303030" stroke="#303030" stroke-width="0.09375"/>
<path opacity="0.27" d="M199.591 549.275C196.55 549.412 193.388 549.549 190.226 549.687C189.982 551.471 189.861 553.393 189.618 555.178C190.226 553.805 190.834 552.432 191.32 551.197C194.118 550.785 196.915 550.373 199.591 549.275Z" fill="#2A2929" stroke="#2A2929" stroke-width="0.09375"/>
<path opacity="0.51" d="M126.493 549.412C124.547 550.236 124.303 551.609 125.641 553.531C126.371 552.295 126.736 550.922 126.493 549.412Z" fill="#313131" stroke="#313131" stroke-width="0.09375"/>
<path opacity="0.52" d="M398.452 559.022C400.033 557.512 400.155 552.57 397.601 552.432C397.601 554.629 397.966 556.826 398.452 559.022Z" fill="#2E2E2E" stroke="#2E2E2E" stroke-width="0.09375"/>
<path opacity="0.43" d="M125.398 554.766C123.331 555.59 123.087 556.963 124.668 558.748C125.276 557.512 125.641 556.276 125.398 554.766Z" fill="#303030" stroke="#303030" stroke-width="0.09375"/>
<path opacity="0.6" d="M189.252 557.787C188.644 560.67 188.401 563.827 188.523 566.985C191.199 565.749 190.59 560.121 189.252 557.787Z" fill="#322F32" stroke="#322F32" stroke-width="0.09375"/>
<path opacity="0.46" d="M399.668 567.122C401.371 565.475 401.128 560.67 398.695 560.395C398.817 562.592 399.182 564.926 399.668 567.122Z" fill="#313131" stroke="#313131" stroke-width="0.09375"/>
<path opacity="0.58" d="M124.06 561.219C122.236 564.377 122.236 568.221 121.992 571.79C122.844 568.358 123.452 564.788 124.06 561.219Z" fill="#2E2F2F" stroke="#2E2F2F" stroke-width="0.09375"/>
<path opacity="0.48" d="M400.885 577.968C402.466 576.046 402.587 570.692 400.033 570.143C400.033 572.751 400.277 575.36 400.885 577.968Z" fill="#323133" stroke="#323133" stroke-width="0.09375"/>
<path opacity="0.57" d="M188.158 569.868C187.428 571.653 187.185 573.438 187.307 575.222C189.374 575.222 189.739 571.104 188.158 569.868Z" fill="#313134" stroke="#313134" stroke-width="0.09375"/>
<path opacity="0.52" d="M121.749 574.261C119.682 574.948 119.317 576.321 120.776 578.243C121.506 577.007 121.871 575.772 121.749 574.261Z" fill="#343432" stroke="#343432" stroke-width="0.09375"/>
<path opacity="0.56" d="M186.698 578.106C185.725 580.577 184.996 583.048 184.752 585.794C187.428 585.656 188.401 580.165 186.698 578.106Z" fill="#2E2F30" stroke="#2E2F30" stroke-width="0.09375"/>
<path opacity="0.4" d="M120.533 579.616C118.587 580.302 118.222 581.675 119.56 583.597C120.411 582.362 120.776 580.989 120.533 579.616Z" fill="#32312F" stroke="#32312F" stroke-width="0.09375"/>
<path opacity="0.52" d="M402.344 593.619C402.223 589.775 403.561 585.245 401.371 581.812C401.614 585.656 401.858 589.638 402.344 593.619Z" fill="#303231" stroke="#303231" stroke-width="0.09375"/>
<path opacity="0.48" d="M339.584 590.187C339.706 588.677 339.341 587.441 338.49 586.48C337.03 588.402 337.395 589.638 339.584 590.187Z" fill="#2C2D2E" stroke="#2C2D2E" stroke-width="0.09375"/>
<path opacity="0.49" d="M119.195 586.48C117.249 587.304 117.006 588.677 118.344 590.599C119.073 589.363 119.438 587.99 119.195 586.48Z" fill="#323331" stroke="#323331" stroke-width="0.09375"/>
<path opacity="0.37" d="M118.1 591.834C116.154 592.658 115.789 594.031 117.127 595.953C117.979 594.717 118.344 593.344 118.1 591.834Z" fill="#2F2F2F" stroke="#2F2F2F" stroke-width="0.09375"/>
<path opacity="0.51" d="M341.895 598.424C342.139 597.051 341.774 595.816 340.801 594.718C339.463 596.64 339.828 597.875 341.895 598.424Z" fill="#2F2F2F" stroke="#2F2F2F" stroke-width="0.09375"/>
<path opacity="0.49" d="M403.925 605.563C403.925 603.092 403.561 600.621 402.831 598.424C402.831 613.663 403.196 629.04 402.588 644.279C404.169 640.297 403.804 635.904 403.804 631.648C403.804 622.862 403.804 614.213 403.925 605.563Z" fill="#333333" stroke="#333333" stroke-width="0.09375"/>
<path opacity="0.43" d="M116.884 598.836C114.816 599.66 114.573 601.033 115.911 602.955C116.641 601.719 117.006 600.346 116.884 598.836Z" fill="#313131" stroke="#313131" stroke-width="0.09375"/>
<path d="M395.411 620.665C395.29 613.8 395.898 606.661 394.56 599.934C394.074 613.663 394.195 627.529 394.682 641.396C395.776 634.531 395.29 627.529 395.411 620.665Z" fill="#3D2808" stroke="#3D2808" stroke-width="0.09375"/>
<path opacity="0.52" d="M344.328 608.172C344.45 606.799 344.206 605.426 343.355 604.328C341.895 606.25 342.26 607.485 344.328 608.172Z" fill="#313131" stroke="#313131" stroke-width="0.09375"/>
<path opacity="0.34" d="M115.668 604.465C113.357 604.465 112.992 610.369 115.303 610.643C115.424 608.584 115.546 606.524 115.668 604.465Z" fill="#2F2F2F" stroke="#2F2F2F" stroke-width="0.09375"/>
<path opacity="0.44" d="M345.666 614.899C345.787 613.389 345.422 612.153 344.571 611.055C343.233 612.977 343.598 614.213 345.666 614.899Z" fill="#313131" stroke="#313131" stroke-width="0.09375"/>
<path opacity="0.62" d="M147.291 620.528C140.723 621.351 134.155 621.351 127.587 620.665V622.038C134.155 621.901 140.723 621.901 147.291 622.038V620.528Z" fill="#2D2D2D" stroke="#2D2D2D" stroke-width="0.09375"/>
<path opacity="0.57" d="M402.466 646.475C401.98 650.32 401.615 654.164 401.25 658.008L402.709 657.87C402.588 654.026 402.466 650.182 402.466 646.475Z" fill="#2F332F" stroke="#2F332F" stroke-width="0.09375"/>
<path opacity="0.38" d="M345.666 648.398C343.598 649.084 343.355 650.319 344.814 652.241C345.544 651.143 345.787 649.77 345.666 648.398Z" fill="#303030" stroke="#303030" stroke-width="0.09375"/>
<path opacity="0.59" d="M338.976 656.498C338.125 653.34 333.138 654.026 330.949 655.537C333.625 656.223 336.301 656.635 338.976 656.498Z" fill="#2F3030" stroke="#2F3030" stroke-width="0.09375"/>
<path opacity="0.62" d="M327.057 655.537C324.989 654.026 319.881 653.34 319.029 656.36C321.705 656.498 324.381 656.223 327.057 655.537Z" fill="#2C2E2D" stroke="#2C2E2D" stroke-width="0.09375"/>
<path opacity="0.55" d="M400.885 660.616C400.398 662.813 400.033 665.009 400.155 667.206C402.587 666.931 402.587 661.989 400.885 660.616Z" fill="#30322F" stroke="#30322F" stroke-width="0.09375"/>
<path opacity="0.49" d="M399.668 670.089C399.06 671.737 398.817 673.521 398.817 675.306C401.006 675.443 401.371 671.188 399.668 670.089Z" fill="#323232" stroke="#323232" stroke-width="0.09375"/>
<path opacity="0.39" d="M398.574 678.326C397.722 679.287 397.357 680.66 397.479 682.033C399.547 681.484 399.912 680.249 398.574 678.326Z" fill="#2E2E2E" stroke="#2E2E2E" stroke-width="0.09375"/>
<path d="M361.356 693.84C350.044 693.703 338.611 693.154 327.422 695.213C338.368 694.115 349.436 694.389 360.504 693.84H361.356Z" fill="#FCFCFA" stroke="#FCFCFA" stroke-width="0.09375"/>
<path opacity="0.45" d="M289.595 693.703C287.528 694.389 287.285 695.625 288.622 697.547C289.474 696.449 289.717 695.213 289.595 693.703Z" fill="#313131" stroke="#313131" stroke-width="0.09375"/>
<path d="M362.572 695.488C362.086 695.076 360.991 694.252 360.504 693.84C349.436 694.389 338.368 694.115 327.422 695.213L326.449 695.35C333.138 697.135 339.949 696.174 346.639 695.899C351.99 695.625 357.342 695.899 362.572 695.488Z" fill="#5B3503" stroke="#5B3503" stroke-width="0.09375"/>
<path opacity="0.53" d="M393.466 697.41C392.492 698.92 391.519 700.567 391.519 702.626C393.709 703.313 395.168 698.92 393.466 697.41Z" fill="#2A2A2A" stroke="#2A2A2A" stroke-width="0.09375"/>
<path opacity="0.51" d="M288.258 700.43C286.19 700.43 285.947 704.549 287.528 705.647C288.379 704.137 288.379 702.215 288.258 700.43Z" fill="#343434" stroke="#343434" stroke-width="0.09375"/>
<path opacity="0.48" d="M385.803 703.313C377.532 703.176 369.14 703.038 360.869 704.137C369.14 704.274 377.532 705.235 385.803 703.313Z" fill="#2E2E2E" stroke="#2E2E2E" stroke-width="0.09375"/>
<path opacity="0.49" d="M357.829 704.549C348.707 704.823 339.585 704.274 330.584 705.647C339.585 705.51 348.828 706.745 357.829 704.549Z" fill="#2D2D2D" stroke="#2D2D2D" stroke-width="0.09375"/>
<path opacity="0.48" d="M328.638 705.784C320.246 706.196 311.975 705.647 303.704 706.882C311.975 707.02 320.489 708.255 328.638 705.784Z" fill="#2E2E2E" stroke="#2E2E2E" stroke-width="0.09375"/>
<path opacity="0.32" d="M299.447 707.432C295.312 707.432 291.177 707.294 287.041 706.883V708.53C291.177 708.668 295.434 708.805 299.447 707.432Z" fill="#2E2E2E" stroke="#2E2E2E" stroke-width="0.09375"/>
</svg>
