<svg width="277" height="278" viewBox="0 0 277 278" fill="none" xmlns="http://www.w3.org/2000/svg">
<rect width="277" height="278" fill="#F15A29"/>
<path d="M119.843 72.08H53.027V40.4H224.099V72.08H157.283V242H119.843V72.08Z" fill="white"/>
<path d="M187.702 83.5H192.252V108H187.702V83.5ZM196.502 138.47H200.807V148.235C199.547 149.238 198.077 150.008 196.397 150.545C194.717 151.082 192.99 151.35 191.217 151.35C188.72 151.35 186.469 150.813 184.462 149.74C182.455 148.643 180.88 147.138 179.737 145.225C178.594 143.312 178.022 141.153 178.022 138.75C178.022 136.347 178.594 134.188 179.737 132.275C180.88 130.362 182.455 128.868 184.462 127.795C186.492 126.698 188.767 126.15 191.287 126.15C193.34 126.15 195.207 126.488 196.887 127.165C198.567 127.842 199.979 128.833 201.122 130.14L198.252 132.94C196.385 131.073 194.134 130.14 191.497 130.14C189.77 130.14 188.23 130.502 186.877 131.225C185.547 131.948 184.497 132.963 183.727 134.27C182.98 135.577 182.607 137.07 182.607 138.75C182.607 140.383 182.98 141.853 183.727 143.16C184.497 144.467 185.547 145.493 186.877 146.24C188.23 146.987 189.759 147.36 191.462 147.36C193.375 147.36 195.055 146.94 196.502 146.1V138.47ZM199.941 190.185V194H181.566V169.5H199.451V173.315H186.116V179.685H197.946V183.43H186.116V190.185H199.941ZM196.52 237L191.515 229.825C191.305 229.848 190.99 229.86 190.57 229.86H185.04V237H180.49V212.5H190.57C192.693 212.5 194.536 212.85 196.1 213.55C197.686 214.25 198.9 215.253 199.74 216.56C200.58 217.867 201 219.418 201 221.215C201 223.058 200.545 224.645 199.635 225.975C198.748 227.305 197.465 228.297 195.785 228.95L201.42 237H196.52ZM196.415 221.215C196.415 219.652 195.901 218.45 194.875 217.61C193.848 216.77 192.343 216.35 190.36 216.35H185.04V226.115H190.36C192.343 226.115 193.848 225.695 194.875 224.855C195.901 223.992 196.415 222.778 196.415 221.215Z" fill="white"/>
</svg>
